<mxfile host="drawio.corp.amazon.com" modified="2024-11-17T02:08:07.054Z" agent="Mozilla/5.0 (Macintosh; Intel Mac OS X 10_15_7) AppleWebKit/537.36 (KHTML, like Gecko) Chrome/130.0.0.0 Safari/537.36" etag="yghcECJvGPP-oVyrfstk" version="21.7.4" type="device">
  <diagram name="Page-1" id="Xel9eWiAZ8jCTVJjVttZ">
    <mxGraphModel dx="1434" dy="795" grid="1" gridSize="10" guides="1" tooltips="1" connect="1" arrows="1" fold="1" page="1" pageScale="1" pageWidth="1169" pageHeight="827" background="#ffffff" math="0" shadow="0">
      <root>
        <mxCell id="0" />
        <mxCell id="1" parent="0" />
        <mxCell id="-weSQRlIko4ZVMSPdNd1-15" value="AWS Cloud" style="points=[[0,0],[0.25,0],[0.5,0],[0.75,0],[1,0],[1,0.25],[1,0.5],[1,0.75],[1,1],[0.75,1],[0.5,1],[0.25,1],[0,1],[0,0.75],[0,0.5],[0,0.25]];outlineConnect=0;gradientColor=none;html=1;whiteSpace=wrap;fontSize=12;fontStyle=0;container=1;pointerEvents=0;collapsible=0;recursiveResize=0;shape=mxgraph.aws4.group;grIcon=mxgraph.aws4.group_aws_cloud_alt;strokeColor=#232F3E;fillColor=none;verticalAlign=top;align=left;spacingLeft=30;fontColor=#232F3E;dashed=0;" vertex="1" parent="1">
          <mxGeometry x="70" y="70" width="840" height="650" as="geometry" />
        </mxCell>
        <mxCell id="-weSQRlIko4ZVMSPdNd1-26" value="VPC" style="sketch=0;outlineConnect=0;gradientColor=none;html=1;whiteSpace=wrap;fontSize=12;fontStyle=0;shape=mxgraph.aws4.group;grIcon=mxgraph.aws4.group_vpc;strokeColor=#B6BABF;fillColor=none;verticalAlign=top;align=left;spacingLeft=30;fontColor=#B6BABF;dashed=0;" vertex="1" parent="-weSQRlIko4ZVMSPdNd1-15">
          <mxGeometry x="20" y="40" width="670" height="470" as="geometry" />
        </mxCell>
        <mxCell id="-weSQRlIko4ZVMSPdNd1-24" value="" style="shape=image;imageAspect=0;aspect=fixed;verticalLabelPosition=bottom;verticalAlign=top;image=data:image/png,iVBORw0KGgoAAAANSUhEUgAAAlgAAADICAYAAAA0n5+2AAAACXBIWXMAABcSAAAXEgFnn9JSAAAFG2lUWHRYTUw6Y29tLmFkb2JlLnhtcAAAAAAAPD94cGFja2V0IGJlZ2luPSLvu78iIGlkPSJXNU0wTXBDZWhpSHpyZVN6TlRjemtjOWQiPz4gPHg6eG1wbWV0YSB4bWxuczp4PSJhZG9iZTpuczptZXRhLyIgeDp4bXB0az0iQWRvYmUgWE1QIENvcmUgNi4wLWMwMDYgNzkuZGFiYWNiYiwgMjAyMS8wNC8xNC0wMDozOTo0NCAgICAgICAgIj4gPHJkZjpSREYgeG1sbnM6cmRmPSJodHRwOi8vd3d3LnczLm9yZy8xOTk5LzAyLzIyLXJkZi1zeW50YXgtbnMjIj4gPHJkZjpEZXNjcmlwdGlvbiByZGY6YWJvdXQ9IiIgeG1sbnM6eG1wPSJodHRwOi8vbnMuYWRvYmUuY29tL3hhcC8xLjAvIiB4bWxuczpkYz0iaHR0cDovL3B1cmwub3JnL2RjL2VsZW1lbnRzLzEuMS8iIHhtbG5zOnBob3Rvc2hvcD0iaHR0cDovL25zLmFkb2JlLmNvbS9waG90b3Nob3AvMS4wLyIgeG1sbnM6eG1wTU09Imh0dHA6Ly9ucy5hZG9iZS5jb20veGFwLzEuMC9tbS8iIHhtbG5zOnN0RXZ0PSJodHRwOi8vbnMuYWRvYmUuY29tL3hhcC8xLjAvc1R5cGUvUmVzb3VyY2VFdmVudCMiIHhtcDpDcmVhdG9yVG9vbD0iQWRvYmUgUGhvdG9zaG9wIDIyLjQgKE1hY2ludG9zaCkiIHhtcDpDcmVhdGVEYXRlPSIyMDIyLTAzLTE1VDIwOjAxOjEzLTA0OjAwIiB4bXA6TW9kaWZ5RGF0ZT0iMjAyMi0wMy0xNVQyMDo1NDo0Mi0wNDowMCIgeG1wOk1ldGFkYXRhRGF0ZT0iMjAyMi0wMy0xNVQyMDo1NDo0Mi0wNDowMCIgZGM6Zm9ybWF0PSJpbWFnZS9wbmciIHBob3Rvc2hvcDpDb2xvck1vZGU9IjMiIHBob3Rvc2hvcDpJQ0NQcm9maWxlPSJzUkdCIElFQzYxOTY2LTIuMSIgeG1wTU06SW5zdGFuY2VJRD0ieG1wLmlpZDo2YTk4YWExNC0wNGYzLTRiODQtODBjMC1kZjg0ZmY0MDYxNTkiIHhtcE1NOkRvY3VtZW50SUQ9InhtcC5kaWQ6NmE5OGFhMTQtMDRmMy00Yjg0LTgwYzAtZGY4NGZmNDA2MTU5IiB4bXBNTTpPcmlnaW5hbERvY3VtZW50SUQ9InhtcC5kaWQ6NmE5OGFhMTQtMDRmMy00Yjg0LTgwYzAtZGY4NGZmNDA2MTU5Ij4gPHhtcE1NOkhpc3Rvcnk+IDxyZGY6U2VxPiA8cmRmOmxpIHN0RXZ0OmFjdGlvbj0iY3JlYXRlZCIgc3RFdnQ6aW5zdGFuY2VJRD0ieG1wLmlpZDo2YTk4YWExNC0wNGYzLTRiODQtODBjMC1kZjg0ZmY0MDYxNTkiIHN0RXZ0OndoZW49IjIwMjItMDMtMTVUMjA6MDE6MTMtMDQ6MDAiIHN0RXZ0OnNvZnR3YXJlQWdlbnQ9IkFkb2JlIFBob3Rvc2hvcCAyMi40IChNYWNpbnRvc2gpIi8+IDwvcmRmOlNlcT4gPC94bXBNTTpIaXN0b3J5PiA8L3JkZjpEZXNjcmlwdGlvbj4gPC9yZGY6UkRGPiA8L3g6eG1wbWV0YT4gPD94cGFja2V0IGVuZD0iciI/PoFBOXkAAC6tSURBVHic7d13mJ1Vtcfx7znTJ42QEEKkBlC6NAWRqoAiiFyaCigdC96roCBVBQGBC4iAChakCSJFQOECIkiPdOkgSYA0SAIkpEymnvvHmkkmkzNnzl7vfk+Z+X2eZx54krPfdyc5ZZ29114rk8vlEBEREZF4suWegIiIiMhgowBLREREJDIFWCIiIiKRKcASERERiUwBloiIiEhkCrBEREREIlOAJSIiIhKZAiwRERGRyBRgiYiIiESmAEtEREQkMgVYIiIiIpEpwBIRERGJTAGWiIiISGQKsEREREQiU4AlIiIiEpkCLBEREZHIFGCJiIiIRKYAS0RERCQyBVgiIiIikSnAEhEREYlMAZaIiIhIZAqwRERERCJTgCUiIiISmQIsERERkcgUYImIiIhEpgBLREREJDIFWCIiIiKRKcASERERiUwBloiIiEhkCrBEREREIlOAJSIiIhKZAiwRERGRyBRgiYiIiESmAEtEREQkMgVYIiIiIpEpwBIRERGJrLbcE6hkRxxa7hlUlE8B6wGNwHBgM6AJmAjUAV3Y8+kd4H1gGvAG0A68CzwLzCr5rMsok4HaWnj4ke/z7uzHaWwcW+4piYhEM2PmHeWeQkVTgCX5TAA+AnwR2B0YCWxY5NjN+vn1ucBUYAZwA/Aa8O9k0xQREalMCrCkx0rAQdhK1ReAlSNff2z3zyeAfbp/7QHgGeB3wKuR7yciIlI2CrBkD+C/gAOwIKuUdun++Q7wFHA1cB3QUuJ5iIiIRKUk96HrQOBJ4C7gaEofXPXWAHwa+A3wEvBTYHwZ5yMiIpKIAqyh52vA48CNwNZlnks+6wCnAS8AZ2DbiiIiIlVFAdbQsQ3wd+AaYNsyz6UYY4EfYTlah5d5LiIiIkEUYA1+9cDFwCRg1/JOxWUN4ErgTmCtMs9FRESkKAqwBrfdsRWg75Z7IhF8AXge+Fa5JyIiIjIQBViD18nAPcDG5Z5IRCOBXwF/Jn4ZCRERkWgUYA1O1wLnlHsSKToAS9TfoNwTERERyUcB1uAyDqsndUi5J1ICH8WCrD3KPREREZG+FGANHhOBe4GtSnzfBcCH3f+dDywp4b1XwpLf9yrhPUVERAakSu6Dw9rYKcFVUrzHc1g/wcexcg+LsGBqIZADMljD5zpgFPbc2gA7ubgBsD7p5E1lgL9ifRP/lsL1RUREginAqn7jsJ5+sYOrVixoux54GXjEcY2nsNY3AKtjwdZ2wP7A6Ahz7O12LMi6K/J13XI5qKuD2tomcrnOck9HRERKSFuE1W0kti24dsRrzsDqZm0O7Iy1r/EEV31NB64CjsG2M78LPBzhuj2y2HbhZyNeM5G6Onj//el8+OFkamuHlXs6IiJSQgqwqtutwMcjXWsmcGr39Y4DXo103XzmAZcAOwL7Yj0RY7kHS4Avu/p6mDXrCea+9yz19aPKPR0RESkhBVjV6xzirNbkgJ8Dm3Zf870I1wzxF+CTwFeBNyJcrwa4hQrY/rYtwmHU1jZri1BEZIhRgFWd9sYKiSb1L+BTwPHA+xGul8SfgC2xla2kNgEuj3AdERERFwVY1WcUyxLHk7gQa/r8rwjXimUBlpt1ALA44bWOBL6eeEZOuRxks1BfP0qrVyIiQ5ACrOpzJTAiwfhW7BTfD+JMJxU3A1tgpxCTuBSYkHw64WpqYPHiVqZN/z/q6kaWYwoiIlJGCrCqy/5YUrjXLKxp8i1xppOq14HdgIcSXGMk8Ms40wlTUwNLlrQxe+5T1NY2l2MKIiJSRgqwqkc9tiLjNRsru3B/lNmUxjxgJ+C2BNfYB/h8hLkE6eqCxsYRNDaMpaurvdS3FxGRMlOAVT1+BIx3jm3BgozX402npPYFHk0w/lKswnzJ1NXBtOl/Z/Hi6dTUNJby1iIiUgEUYFWHNYHvJxh/APBspLmUQw7b2nzNOX494JvxplNYLgcNDfD+By/R0vIuNTUlje1ERKQCKMCqDhcB3mWQU7AK59XuQ5Lln51EiVaxamqgpWUJ7e0LqasbQS6XK8VtRUSkgijAqnyfBvZzjr0F+FnEuZTby8BXnGMnAIdHnEu/Ghpg9py3mD79Hhobx5XiliIiUmEUYFU+7ym4ecA3Is6jUtyINaD2OJ4SPOdzOaipaSKbrSOX60r7diIiUoEUYFW2w/D3GvwOpW97UyrHYgFkqI8Bu8adyvIyGTtBOGXKDXR1tZHJZNK8nYiIVKiy92uTfjUDFzjHPgr8MeJcKs08rDG1Z3XvcODeqLPpI5eDBQumlqKC+/5YrTCPd7GTqeU2AtgT60c5rPvX3gQeACaVaU4xHQLsEPD4Lmxb/+10piMipaIAq3KdAYxxjj0h5kQq1K+wk5UTA8ftDaxMir0Xc7nO7tIMqS4QZ4HLgFUTXOMOklfLT+IY4Ifk/zfMYYczvgdMLuGcYtsPq8UW4hoUYIlUPW0RVqZ18bey+TvweMS5VLKfOsY0AwfGnkiPujqYN28yCxa+lXYF991IFlyBbUGXy7nAFfQfIGeAvbBVrA1LNakUzA58fCfWzkpEqpwCrMqUpL3LGdFmkV8zsBJWFX4/7EPwS1gh07Ek65MY6hpgqmPcTrEn0qOjA0aMWJNhzR+hs7MlrdtAnAMMBwLDI1wn1D7YylUxxmIHG+pTm42ISAq0RVh5dgU+5xz7Cskqnvcng30Yb4t9OK7U/dPXfGAJluN0P3ArVr8qLV1YkPXjwHGfwz6458aeUEMDTJ78GHPmPplmiYbV8T9HelsFy3+6McK1Qpwe+PhNgf+i9PMUEXHTClZlyQCXJxgfu7HxMGyl4RXgT1g+zNrkD64ARmHbVl8D/gC8CFyIfZCn5Ros0AoxGlgrhbmQzUJHRwudnS1kMqm9vL6KrSTGcEyk6xRrE2BLx7ivxp6IiEiaFGBVluOx/Cuv22NNBDv99ByWK/Mx5zXWwP5MzwPfijOtFUzB18B6j9gTATtBmM3WksnUYnna0WWAQyNe7zNY0FMqGzvHrYv92UVEqoICrMoxDis94PUAMD3CPOqB3wHXYj38YhiPnfq7meSJ2fnc5BizffRZlMb2+IOU/ng7BXh4g6Q69H4lIlVEb1iV4yxs68rriQhzqAduA46McK189gMewoLJmF52jFmNFFZEMhnIZutIafUK4KgUrnkkJerTmEArdsJORKQqKMCqDJsDRye8xiMJx9dgJR5S2Trr5aNYGYmPRLzmJOC1wDETsXyyqLq6cnR0LCKll9YoLNk7tjWw+mCl4AmGobprYYnIEKQAqzJcmHD8h8A/E17jWmDHhNco1kRsu7Am0vU6gGmBY4YTub5SbS0sXNjC5Kk309CwUsxL9/gy6ZXB+FpK1+3rReDfjnE3x56IiEiaVKah/PbGEo2T+ABoSzD+aEp/Smtb4BdYz8QY3nKM8VbKL6C2u/5VKvnY30zjot32wLZNZ6V4D7ATnycDdwWMeQNfnp1IMbJY0eKNgMVFPL4Je06egn25E8lLAVZ51QMXRbjOa/gDrNWBSyPMweNYrMxCjPyxuwnPHWuIcN+lMhloaZlFV1d7GiUatgK2iH3RXuqBI4CzU7xHj//DguvvFvHYOcC+QHuqM5KhLIOdml4zYMwcrJenAizpl7YIy+sEkpVl6BG6PdbbmUQONAL9PNJ1/uMYE1o/q6BsFlqWzKGzc0kaAdZBgY/3ZNl/jXjbtgP5HvBt4J0Cj7kH2B14oRQTkiEttOjwHFI8ySKDg1awymcMcFqka3lyWsCSmw+PNAev7bAtUk8tq6RiBLdLdXXBiOFrUVs7nLa2eWTjxVjDCe8b+E/gacJ6Wn4My8N7IPBeXr/Gcqt2wcpPrIZ1AngWW9VMenBDRKRsFGCVz0VAY6RrLXSOS6v4Z6hvkDzA8nyb7K/RsEt9Pbw++ToWLJjMsGFrOKeU1/7AyoFj/oo1Uw5tGn4EpQuwwFYC/tz9IyIyaCjAKo9PAF+PeD1vDaMvJbjns9gKwzSseOgn8J9C/By2SuMNFMGXVR4tryeXg5oaqK8biQVWUXcPQrcHAf6BJey+RFhh0v2w6vtzHPcUEZFuCrDK47LI1/PkEn0COzXjcSJwAStGEQcDVxH+vBqFBVm3OOfjFS3fqKYGlixZwuLFs6ipibUwCcD6wG6BY17HyiEA/I2wAKsJC+h+EXhPERHpRUnupXcw8MlyTwLY1Dnu28D/kn+J5o9YoOQ50ViO1jWtsS7U0AAfzJvH9On30tAQtbe1J0fuFpYF3X9xjD/MMUZERHpRgFVadcD5KVz3o44xni21v2OJyYXcj2+FLulJRk8blacS3nOpri6YM+dfZOKWv6rDtz3Yu8bUv4BXAsdvTrolIUREBj0FWKV1NjAhheuu7xizlWPMGUU+7hcUV7Cvt6RNoD1FQ6OsYGUyloM1bdqddHa2xQyy9gLWChwzlRVP33mqoB/jGCNSjToJT5rMod6YMgDlYJXOuljycBrWx1Y7QpK2PQHJu0U+biYwD2gOuPZ62KqaNzs8aTV8t0wGOjs7qKlpIpuNWkbqUMeYfBXP7wROD7zOV7GK6/MccxhsxmN5bBtg+YKd2JfTLuBt7CDBm1jLqlLIYF/UNsLeV1bunksOyytciB0+eRGYDrQ4rj/UajyFFgztdIxJUy0wFntOrI09Z3ueE5nun9nY8/Vl7L28kuY/KCnAKp3zSa+I41jCt/w8b6Ah9yj16qgnYT/JqcWlGhpg8uQHmT3ncRobky7ELbUmls8WIodVxu/rCSzxPWQreRS2gnZd4ByKcTC2BVnsG3wWuAQLFgayKVYwtZijnHXAfVhl+b6asfIYBwA7UbgHZDvWrurs7nmm5ZNY4dU9gU2wk7eFLMG+7NyJ1UW7tcj7ZLCDLGMo/gBNbfc9/lbk4z02xHISi51TBiuFczbwHlZ5vanP+A6si8HagXOZgOWitnSP70+h51hSDdhzYTtgV6zsTDG9ShdizdPvAyZhJV2i5aPKMgqwSmMXrN1HWsZgbz4hBUdnOu6zJcVVTN+A8BWyN0j2rXltx5gkFfCXymahq6uTjo6W7gruUb78H0p4nbRnsdWUvnLYh+tJgdc7inQCrGMIL+lxB8UFWFthHRKKNYIVP/wOBX4MrFPkNeqAcdjzPoa+X2T2xCrf7xp4nUbsQ/e/u39eAa4EfknhVa2u7nGh28RHYysnoStmxToH2Mcx7iTsC8OPIs5lLMXXmMv3HEtiDezv+iB8xZKHAx/v/gGYAlyLPS9UniUi5WCVxsUpX78W+GLgmJcd9/lhkY87kfDaXMVuP+bzUcJKEYAFdN4K+Mvp6srR1dVKNltPpOAqg6/59l8L/J6nkOdOpJPsPtsxpthv2IsCr/t+r/8fhQWUV1F8cNXb444xfWVZlr+4PbbK8DfCg6t8NsRWXZ4BvjLAY7/P8n83xRhJesWL18FWVEP9CAv4moEFUWdUvNC/x/6MwFqbvYht+cfqRDER+0LxPNbAOpVO9UORAqz0HQVsVoL7hCa6L3HcYwvgrAEecwi2RRPK26wa7NRbU+CYdwn/MF6B1b/KMPWt26ivH5X0cj12xD4MQ91W4PdeIP/q1kAOdoypJj3b9qOwVYYkf943E8/GgqsOrLvBQ8BnI1yzrw2AG4A/YEFRPguxYCzU94FhznkV8mXCd1w6sJUZKF2PzbTsDDyGBVb9/ZslNR7bTn0E2DqlewwpCrDSNQw4t0T3+jxhL7wn8C3lnwpcyorfnlbBXvzXrjCiOHcN/JB+7eIYMyPB/ZaqqYEPF7xJS8u7ZLPegvor+LZjzNPAcwV+vwNffsyB+DsFVIOeZtP3AJ9KcJ0F+FaF++oE/gRcTvorCYdhH6bj+/n9SwjfMppA/KC8FvimY9xtLAt6qzlp/ydY+6pNSnS/7YAnge+W6H6DlgKsdJ2N77SexzhsS6dYr2NLwh7fwVZDrsVqXl3efa0zndebg7V28WjAvt2G8gaCS+Vy0NQE02f8nUWL3o5VwX0svq2QYgqKeoqOrgHs7RhXLZqxno3bJLzOm8TZChqJ5TqWyqbYyki+LdHF+Cr6H0fcFaO9CS9XAvZFsNpdiW3flcPFWN6bOCnASs/H8K1EgDWC/p1j3JGBj7/RcY8eDdh24LHYdkZ/34KLcRv+mjJfAkYHjsnhDy6Xqq2FDz+cz/z5r1JXtxKRviQfQFh5C7Ck5DuKeJyn6CiEP6+qyf8Qp+bXS1TvKsk62ApyvtfwFYSftt0AXw5hfzx5XS8CD0ecQzncgK+TQ0wnM3BaiPRDAVZ6LsO3tdKK5TEUSljuz56Enab7LaWr3VPIQNXhCznaMeZxIpwgbGiADxcuZNash2loiLZQ6fnzTMJyrIpR7FH93vbAd0qzGoyNdJ0pka5TLhuQ/7kxFwuyQhVblHgg6+JL8P8t1Rvwgn1+DHQQoVROxXYtJJACrHTshf/Uz4nd/32H8CbOtdhx7mItJN26PcW4Cysv4LENvr/nB0j45pvJQEcHzJxxNzU1DUQq6rwdvlN7+YqL9udGfJM9xDFmKKn2AAssB+3sPL9+AeEHQiYSfrI5n/92jJmH9UWtVkdiOwOV5FJg23JPotoowIqvBl/eAtj2TU/ewBP4trGOAVYLePxFLEv0LYf/STDWm5uQZGt0qUwG5sx5kq6ukAL6BXlOX3YAtwc8/gWKX+3qbbCfJkxqMARYYMf0N+/za+8Av3Fc69SEcxmG7zVxPVZYtBqtSfplfbz+TPKesUOKAqz4voN9e/OO7b2ycqXjGk2EtUX5ADtNVA4XYhWFPbbBtq5CPYcvwFhOYyPMnPk0H8x7mYaGlZNeDqz4336OcY9h/QdDeALMDbCTqkPV89i2/TXYAYn7WT6f7a0Sz2cO9iXsFqxu103Yya8YifYX5vm1nxF+6ngbfAc2enwFawMUKl8wWEtxVc7TEPJnuIqBK/QXksPe33qeq9dhuWih7xH5rEHcYq2Dniq5xzUa+Klz7N+wN+3ebsTe2ELryhyD7eEXe2z8Huwo8E8C75PELOC0BOO9q4S/T3DPpTIZmD9/Cq2t79PQsDK5XOhu7gr2wUpdhPLk6v0Fe16FOgq42zGuWr2LbaH/HQte8vkUtmJcTJX5GO7D6lc9gL2G+lod2AFbGfZu6XwGC6Z7/1vPwU4LHxd4re/jb5/jyUd8mPwFhN/HTjn31yrn64Q1nJ+LBUPFtsopxt74Ss6Adeb4JfZv9kye32/Caml9GV+P0x7HA78iUpmbwU4BVlwX4PuWlCN/I+jZ2Omw0BM5NdibYUg7kjOwUg/ek4+hfoKv2ClYPpDnWH0LxZ22K6imBhYt6uDt6XfR2DguRnAFvpNsxZ4e7Os1bPXjk4HjPoc9RzyV2KvNddgJqoECpxjV24uxAKtL9IcBHjcdO332Jywg/jm+wp/fYsVg+gLseRpyvZ2x1+q/Au+/Lb7X+OX9/Po8CqcU7EhYgDWTsJZMxQhtZdXjUuyLfaGaZS1YId3/w7ZQLyWsN2mPRix4L7arx5CmLcJ4NgWOcI69jP57/P3Kec0dCC/Odyz2Jpq25/DldIDlAJzvHHsN1k0+kcZGmPrW7XzwwYvU1UUpWv1x7N8r1GNYPTMPz6rCcCrnZFOaLsFyf0q1KjWQ97AadwMFV73lsJN0u+L7IrMXtiXU20x8Jwo9tZQ8pRmm4zslC+GLDTWOMYVsh6/Q7bewgCekIOy9WKX2px33A/ucK9d2a1VRgBWP540H7IVR6JvQI8CDzmv/ivBVihOwb74dznsWI8mR39MJS+Lv0Y4/MFsqk4Fcrov5818ll+sg0kvIe0LvTwnueYtznKeidjW5ksqqYL0Ya5fjPWk7qXt8aCuqLPkbK/+a8FOonyHsfWgVfPmI1+ELJmsIr5qfIW4xVU/dsGPof8VuIAuA3YBXHWPHArs77zukKMCKY3/8bTZOZ+BGtt68rgyWxxX6beP3WKNZb+5EITcBjzrHronldHhcT4STXg0NMGfuTGbNepimpglEKLVTh7WjCdWKrzJ7j5fxbW9tSLKWMpXsFaxobiU5geRNyR/D97rJV8H/DXyBfchp4UMJ39bsJFJ+ZRnUEhaw5LDPhN8mvO8H2Aqn52DEvgnvPSQoByu5BizPweN5ilv5+geW1OpJgFwbWxIO/VD8F1bHZicsN2AXkh/R7QJ+kGD8RVgOQKhOIiTw53KWfzVlyi20ts6lufkjRAiw9sUCx1C3Yls2SZxH4QbR/Tmc0uUeldLJpLtyG+pR/CkCfV2Gbe2E1Fn7OPblbEGfXz+d8LIdB2MHK4ppOO7JA70DC/6q0aaE5UMtxoLmLUj+Gb4QeIrwFantsS+H0WrUDEYKsJI7ETu54xFyIqen/5/HttgHsudbx4PdPxth+/ZHYy8ujzPx50DtjG/bAKx44pvOsYAFV83NMGfONN588xbq60cTqVC090RPCxYAexsgtmFVsrsIX8k+EAu6Y5QEqBQvE1ZPrBTylUtI4lzCSnSsAmyMbTP2NhXLZ/x64P1PBQ4a4DF7kb8v4kBiBaLlsFng45uxZPVYPG9kE7Cg0PuZNCQowEpmNfynKfKVZSjkZWy1y7uF8V9Y1fTDsePnoV7u/vHm4LxLsgR6b8X5ucD/JrgvANms5V/9540baWufz4jGieRyiau3r43/WPYR+A9V9OZ5cx2FbYt7DypUosTNvyN7BysPEdO9WFAcUpdpDVYMsMBWo75GWO7Sl7AP5kIrr57ee1OwFf5qtXHg40PzxdK4Xi2wPgqwClIOVjLeI9A5fC0gTiDZMvgeJOu99mP8+TfHE95uo8eh2DK6x3GEN6tdQUM9zJ49nben30lz84QYwRXYh4l3BSoW75u1p8J2Jbun3BPo4wkiPG/7mEd4/uOEfn79VeDqwGs1Y5Xi+7MeFoSFuoxIvarKZO1yT8BpdLknUOkUYPltgxVt87gA35bVApLlEl2B/xvH2vjrtDyMJZl7rIR/9eop7GRRIpkMZGu6eGPq9XS0f0g2W6iuYNFqqO72M9tjOTqDwdtYbbBK0l/ZlqReGfghyxlf4Pd+RnjO2jeAtfr5vaMIP5m3gAiv8TL7SLkn4FSt8y4ZBVh+FzvHzSZ/Q9Vi5TvZU4wFFP72OJCz8K+2fC/BfU8HRpbhvkv1nBycOeMfNDaOJ1Lu1S5YDlQ1O6zcE4hkCpY4XEneTOm6cwMfX+gz4nXCy33Ukr+RcSO+VdGbCasBVYnKvYrtpRWsASjA8jkYfxuKk4D5zrEH4DvSDxaoeJOSt8W/2nI1+Vs3FGNd8le4L8a1+MtBLLX8ycH3yGajpS16KrdXmq9hLTiqXdLTmGmolDkN9G3C03LpSFZMVdib/rcjC0laqqASRGkFUQY6QTgABVjhRuEvy/AMYdWYe2vEf6rodSxPwevXznEf4q9bBdZby2NhwvsCqZ4cnIB/JbKSjGFw/Dm8X3jS5CndUYzQnLuBtuz+TXi9vJWxIKs3T3HXhxkc5UL0OTxI6R823Cn4mvJCsj5/x7Fi64qQ+3qTQI8CNneOPRNr8+HxBaz3ncc5RNg26HtysK4uSZP75XyF5DXFKsVgSHaPWZE7lrQCrNBVomIqo3tSHg7o9f+bY61iQl3lGFOJvO+R5aYqBANQgBVmDazulceNhDc87TEeC1Y87sMKlXo04tsCADvtmKSOj7euzXT8c15OXR28885Upk2/K+bJQRg8uUsAe+JrGiuFeU/NDmTDwMfPKuIxkwhfxdqKZeUJPKVf3iNZq6hKkrg/apnUlXsClU4RaJhfOMctJlkF8/Pw/Vu1k6zv30/xl3UIaY3R1w/o/6TRQDxNYleQy0FTE8yYdR+trXMZPnwdIm0Pbkt6H57lcgT+E6aS3xZYEvEHEa85nvCm4u8U+bgzsSKhIT6L1dbzNBC/iso7mOA1NfDxv8ZajpUzOX4Y8EIZ718VFGAVb3esWKfHRdjKiscnCK+Y3OMy/MfP18UfJN2Nv9LwqlhCvsd9ROqfWFcHi1s6mT//NerqViJScAW25TrY7IdtnVdrsm4lGoO931wZ8Zp7EXYoIUfxH/5PYq/7zwdcfxOssvuogDFgz7NiWoylqYt4z/fQ0jnrUd2FVYcMbREW71LnuJkkq13lrQH1HnBawvt6Cz55T/6BlYPwlmVInNgOy5Lbp017mhkz7qOxcUyMy4J9aHq+rVe69YDdyj2JQSjJ6yifkwMf/y5hX9BCy8DsgS9/627SqxNWrDHEO0H7GGFFmHfDOilIhdMKVnG+jT/P5Fj8CeZfJVk5CO8S+i5YkrnHJYQXM+yxJf4Vnsuw5tmJNTbCtGkv88wzp9LUtErM3Kt98FX+X4R9qHSQbkL2YqyA6ETH2GOpvGro1W5jLAA5NcK1ziX833USYe8hz2LtfYoNtr09XC93jotpVSwnN0armNlY5f6QtlmXYWVoismRC3UFtjWtbf+EFGANbBT+wqB/Am5zjh2Ov4fe88DvnGPBv2o2HzgjwX295S/mkWyVcDl1dTB//lQWLHqb0SttFDPA8jZ2voZkJ1BD7Et48UiwD9XV8W+FS36nYCscdya4xv74eqbe5RhzEemuZk7FN6+BhH5xyQKHEL4q2J+7CAuwVsWak3+OeHl6I7DArScl5TkGz0GCstAW4cDOwtq1hJpEsiPsP8TfiuB7Ce77TSw3wuME/MVM9wF2dI49jUhHnbNZaG2FGbPup7lpfMzgaivCE4x7lLIR8e3ADMe4RmzFVeK7DV+PPrAt6Zsc45YAdzjG3Y0FhGm5gvh9B7uwL2mhjiNeOY0/AK2BYz6BrRiOi3D/XbBVtN75vjcweNphlYUCrMKOwncK729Ysmdon64eH8GCFY9b8SdAjsZf4uAp/FWV67Fvvh4v4i9IupyluVfTH+Oddx6irm5EjMv28B5UeAkL1kulE/ijc+xh6D0lDbVYkHU2xef9jAXOxz4kPW7DcrA8fuwcN5BW0uk7mAPecoxrwA7WbFnk4wsVeX0P+I1jDlthW7OH4Usf2AJbIb8f2CDP79+Dfyt3yNObYWH/Hfj4edjK0xdJVh36YnyFKDvx1+kC+BG+1TpIVobiBGAd59goie1gW4Nt7Z38542ryWRqyWajpTs1snxhxRDXEvEIY5E8Kx4AGwE7R5yHLO8UbPv/ZCxXru8x/ZHYKukp2PaO90sa+NMEwIIOb82/Qm7Ft7pajMnOcetjuVA/AbbJ8/ubYP8eZzBwFf3z8bWfmYCtgD2JpRJsVuCxGZad3ry+e0yhnZZVsZSBwVIYuaSUg1XYl7FWIPtjy7H9eQXbWrmM5G8A2+E/IXIR/jeKDfGXZbgJeNA5dnX8+VN/Be51jl1BfT28Mfkx5sx5kuHD14qd3L6aY1wHpd0e7PEU1tap2G/mvX0d+zYs6VgP61QA1qS699b4ePzdHnq7neQtaE7BX+C4PxdHvl5v/04wthFbtfsxtuLcczBgGBaA1QFPM/DK3nQsEDvLOY8tsNX8Dqy+2DssW4Uchr3XjsQOO4ScEP8ktqqtk4uBFGAV9mr3z/nYab5NWH7VL4e9ycV8I/H2/ZtJstNGl+Bb0Wwl2XHyC/E9DzsIX2Hsl+VedTBlyh+pqWmKGVzBin3XinUP5Wv6eyW+AGt/7PngzcWT4k3Ed+KzkBbivK7ux1Z2Ph3hWmArYk9EulY+j2C7DqE1ufrauJ9fn13k+LOxL2RbJ5hDLbaKVWglK9R+WGAfWopjSFOAVbxJpJ8LcwT+F8WJ+Lub7wXs6hx7Hv6TYzsABzrHXogvbyKvxkaYOmUSc+Y+RVOTZ7GpX+sDOznHevNnYrgZuIDwatHDsO3QcheCFJ9TgGmRrnUW/oLDfV0d6Tr9eQ/7QuN9PxpISJPtr2CryCulMxW3k7Gc1+vLPZFqoRysyjESf4L5E/gTk+vx9wycjr+EBdiWqsccrI1PFNksdLTDG1NvIlvTQCYT9WVxKL6eXe9hOSfl8i7+qvjHxJyIlMxtxN2Gu5s4q07zKM2Hurf/aWyTCW87VCp/xFazpAgKsCrHz/Aft03Sb/BE/EVUjwPanGOPwr9a9wPCKh/3q+fk4NvTH2P27MdoqB9NxJzyWvylOq7HtmvKyRu0b4nlbUj1eAKr6xRbkobvPf5AskNDxXoQCworwaPYdrt3VyJN3jI+Q44CrMrwUeAbzrHXYCdBPFbDV4AQbLv0ZufYBvwrX89gf+YoUjw5CFYN31sn588xJ+J0N/7tosHYEqgUvF9YkngZW5WI8qWlj5vxd3bokfb2YG/HEV6PKi23YO2Eis3fStts4GCSFZMeUhRgVYZL8NUwWUKyBPPzsIrxHkm2gc7Gv1rnDUTzqq+HN9+0k4PNzePJ5aJWRDjMOe4VLOm23Jbgr+R8KL62QEPd7fibnXvcja04plWBv4tkH8j/JNkJv1Cvks5Kntc/sIR37yntWG4ANkX5V0EUYJXf57F2Bx5n4a9g/kn821dXAy84x07EviV6XIclf0aR8snBCfjzKP4QcyIJeRPtV0aV3T1mY6/rfbFcwzSdi62QpL1icyO25eVxccR5FOtmKivImobVlzsV+LDE934K6yJwEJWzklY1FGCVVwZ/jsJU/L0Kwd/3r4Vk/bcuwve8W4x/OzOvxkaYOcNODjY0rBzz0mBvSJ7k9jbsA6lSPItty3pomzBcT97dX7DSMGnUQXsYOzUcq49eMV50jJlKsh6MSfwR2JPk25s9xkS4xjlYMdMrSD8ofhQ4vPt+npZJggKscjsWq37t8T38+RoHYgVNPU7C38H9M/h7qp1LxJpQNTWwaFELr0+21avIJwdH4A9+HwHejjiXGK5yjvss+Su7e3psFlsuwtPfaLxjTFrX7v3nnIIVbt0eC7qTrl48hCVO70j8IqCFjMGKNoe6Hn+7sRjuwop3nkHy0hXePNm+XsX6xW6Mdd7wBK79eQV7re+IPeeuwrZ4xSkTOedkUDni0FQvPwZ4A1+tk/uxDy+PeuwYsKe/1BQsId+zl5bF3gw2dIx9G+uTFe1UXW0tLF68kPsfPIiuziXU1ISWeypoJWx7zPP39ChWDbqSjMC33VeH/Xme6/PruxJeIPMvFLdlNpHwmm6vYKs6adiBsOf8I1jSeT4Tgd27r/kpLHjrrzdhK7AAOx34Tyy4SqN9TTGOJ3ylvh1Yl3g1uZIaibVA2xF7712V/vNX24APsL/7B7t/oqU25LEzlke3Xfd/VykwN7CgdTH2d/sUlu7xNPY8CTJjpha3ClGAVUDKAdYvsb5RHluw4odWsX6EP+n0i/hrI30bf1PmA/H3x8urthZaWhbywEOH0t72IbW1xfbQFakIzViAtR6W79YTzNcAC7EvUTMofc5OX1ksYPxY4Lgbqdwt5iZgNLb7MJZlf/e1WODyOnZoYEEZ5tbcPbd1sCCwhmV1Z3rm9xa2C/EBCU+tKsAqTJXcy2Mz/MHV7/EHV6viD67uwx9crYx/y+xxIgdXAJ2dMHx4MxPX2pcXXvqFAiypNouxFeUp5Z7IAHYjPLgCuDz2RCJq6f4pVxurQhZ3/6TVFFsCKAerPLyJ7R+QrBfUxc5x7SQrZno29s3Kw9uAuqBcDurqsgwfviZdXeUoPSQyJHjKqjxPelu2IiWjAKv0kvT9Oxv/UdlP4V9yvwx4zTl2Y+Bo59grSDF3IZeDtrb55HJdZDIhrcJEpAgT8R1q+Q2+/EWRiqIAq/R+7Rz3FlbiwMu75P4ecFqC+/4eXxHVVlI+Rr5kCay++g6sOm4bWls/SPNWIkPRMYR/xsxDxSxlkFCAVVon4zu9B5az5T2RcDj+vn8nYXv6HgdgdVQ8TsS2RFPT2QnDho2isWEsnZ3aJhSJqAlfsc4/k/LrXqRUFGCVzir486fuwWqyeIzC3/fvOeB3zrFNwAXOsa8AlzrHFi2TgY4OaGtfoC1Ckbi+iK/e2W9jT0SkXBRglc6F+Pv+HZvgvidjTZ09vC1tAL6Pv9Hxd/Cv1hUtl7N2Oeuu+1Wy2YbYfQhFhrLvOsY8RLr1okRKSgFWaXwaf9+/C7CaNh4bASc4x96Ko/Bctwn486fuwAqplkQ2C83Nq9PZ2UIm40kVE5E+tsLXKeJXsSciUk4KsErjYue494EfJ7jv/+L7N16C5UB5nYevLEMXyVbNgnV0QFNTE6NHb0J7eznqAooMOkc6xryDv86eSEVSgJW+Q4CtnWOPw59gvjvwBefYc/Gvmm2JvxP9zylx4cS2Nhg7ZhyrrbYTbW3vlfLWIoPRaOBgx7irgUWR5yJSVgqw0jUcCxo87gSucY7N4F81mwH8zDkW/Emqc4BTE9zXJZOx04SLFs8gl8sp2V0kmcOxvn0hWvGXrxGpWAqw0nUC1qsq1CSS9eH6Dr6mymDJ6d6aBV/BVrA8TsfeaEuuowPGjd2axsaxdHa2l2MKIoOFZ/XqXqzOn8igogArPZthjZVD3QdsjzVs9RgJnOkc+xjWZNWjAX9Zhn9jVdvLor0d1lh9t+5k9yXlmoZItdsZ3xcsbxN4kYqmACs9hwc+vh0LUHYjWZuI84GVnGO9DajBtvc8dW8Ajk9w38SyWViyZAFLWueSzdaVcyoi1czTr/QlrM6fyKCjACs952HbXs8N8LjpWO+trfGXVOixEb7mqgBXYitJHmvjz5+6iRKWZcinsxMaG+sZN3ZrOjq8ZwpEhrSJWHHRUCosKoNWbbknMIi9A5wFnIMtm68K7IAV35wNPAm8jp3Wez/SPS9zjlsE/CDBfX+OL1hvp8yrV2AB1ogRDayx+h68+dZtNDSMLveURKrNQUB94JgW4IYU5iJSERRgpa+LZdWJ70zxPnsCuzjHnoG//9cuwD7OsedgK3hllclYVfdFi2bR2dlGJlNDLpdkl1ZkSGnAt3J+I/ZlU2RQ0hbh4HGxc9x/gIsS3NfbM3AqVm+rIrS3w8orf5SRI9elo0PleEQCfBFfE3slt8ugpgBrcDgZWM859nj8SfXHAhsnuG/FHNlra4PVVtuYlUdvTFvbvHJPR6SaeHqlTkJ9B2WQU4BV/VbFkuk97sXfnmIMlmPm8RBwm3NsKjIZW8XKZGrIZHSSUKRI22PlGUJdHnkeIhVHOVjV7xygyTGuC/hWgvv+BH85iJL2GyxGLgc1NbDuugfx7uzHVdVdpDidwNlY3b5cEY+vxw7V/DnNSYlUAgVY1W0b4Ajn2F/i7/u3Ib6aNwC/A55xjk1VJgO1tcPo6urEug2JyAAe7/4RkT60RVjdfuEc9z7+bUXwJ8UvBk5LcN9UdXVBJtNFbW2TThGKiEgiCrCq1yHYCpbHkcB859g9gc87xx4GvOscm7q2Nhi3yjqsscYetLbOKfd0RESkiinAqk4NWEscjzNIlmB+iXPceVjV9opleVhZamubu7cJRUREfBRgVaczgNUc407FktO9TsJaYoQ6s3tsxcvloKurXQnuIiKSiJLcq8844IeBY17BWuHcleC+wwgPziZjgdXNCe4rIiJSdbSCVX0WA7tibXcGShR6FvgusAXJgiuwsg57BN53cxRciYjIEKQVrOqzEPgH1sNvF2A/YFSfx3RhR6dvBh6NdN8W4AFgZoH7gpVguDbifUVERKpOJpcrpjaciIiIiBRLW4QiIiIikSnAEhEREYlMAZaIiIhIZAqwRERERCJTgCUiIiISmQIsERERkcgUYImIiIhEpgBLREREJDIFWCIiIiKRKcASERERiUwBloiIiEhkCrBEREREIlOAJSIiIhKZAiwRERGRyBRgiYiIiESmAEtEREQkMgVYIiIiIpEpwBIRERGJTAGWiIiISGQKsEREREQiU4AlIiIiEpkCLBEREZHIFGCJiIiIRKYAS0RERCQyBVgiIiIikSnAEhEREYlMAZaIiIhIZAqwRERERCJTgCUiIiISmQIsERERkcgUYImIiIhEpgBLREREJDIFWCIiIiKRKcASERERiUwBloiIiEhkCrBEREREIvt/ZrxQ+/eteigAAAAASUVORK5CYII=;clipPath=inset(0% 7.67% 0% 4.67%);" vertex="1" parent="-weSQRlIko4ZVMSPdNd1-15">
          <mxGeometry x="165.12" y="222" width="131.49" height="50" as="geometry" />
        </mxCell>
        <mxCell id="-weSQRlIko4ZVMSPdNd1-5" value="" style="image;sketch=0;aspect=fixed;html=1;points=[];align=center;fontSize=12;image=img/lib/mscae/Docker.svg;" vertex="1" parent="-weSQRlIko4ZVMSPdNd1-15">
          <mxGeometry x="203.26" y="280" width="55.21" height="45.28" as="geometry" />
        </mxCell>
        <mxCell id="-weSQRlIko4ZVMSPdNd1-1" value="" style="sketch=0;outlineConnect=0;fontColor=#232F3E;gradientColor=none;fillColor=#7AA116;strokeColor=none;dashed=0;verticalLabelPosition=bottom;verticalAlign=top;align=center;html=1;fontSize=12;fontStyle=0;aspect=fixed;pointerEvents=1;shape=image;image=data:image/svg+xml,PHN2ZyB4bWxuczp4bGluaz0iaHR0cDovL3d3dy53My5vcmcvMTk5OS94bGluayIgeG1sbnM9Imh0dHA6Ly93d3cudzMub3JnLzIwMDAvc3ZnIiBwcmVzZXJ2ZUFzcGVjdFJhdGlvPSJ4TWlkWU1pZCIgdmVyc2lvbj0iMS4xIiB2aWV3Qm94PSIwIDAgNTEyIDE5NS40Njc5MjYwMjUzOTA2MiIgaGVpZ2h0PSIxOTUuNDY3OTI2MDI1MzkwNjIiIHdpZHRoPSI1MTIiPiYjeGE7ICAgIDx0aXRsZT5kYnQ8L3RpdGxlPiYjeGE7ICAgIDxnPiYjeGE7ICAgICAgICA8cGF0aCBmaWxsPSIjMjYyQTM4IiBkPSJNMzM0LjczNDQ4MSwzMC4yMjE1MTMzIEwzMzQuNzM0NDgxLDE2My42NTU5NTYgTDMwNy42OTI1NzksMTYzLjY1NTk1NiBMMzA3LjY5MjU3OSwxNTAuMDQ3MjYyIEMzMDQuODY0ODEsMTU0LjgxOTA2OCAzMDAuODAxMjQ5LDE1OC43MDczNiAyOTUuODUxNTY3LDE2MS4xODE1NDkgQzI5MC41NTAwNDIsMTYzLjgzMjUyOSAyODQuNTQwNDg5LDE2NS4yNDY0MTMgMjc4LjUzMzEwOCwxNjUuMjQ2NDEzIEMyNzEuMTA5NjcxLDE2NS40MjMyMDMgMjYzLjY4NjIzMywxNjMuMzAyMzc2IDI1Ny41MDA3NTksMTU5LjA2MDcyMiBDMjUxLjEzOTM2NCwxNTQuODE5MDY4IDI0Ni4xODk2ODIsMTQ4Ljk4Njk1NyAyNDMuMDA3ODk4LDE0Mi4wOTQzMjMgQzIzOS40NzQyNzMsMTM0LjE0MTE2OCAyMzcuNzA2Mzc0LDEyNS42NTgwNzcgMjM3Ljg4MjI5NSwxMTYuOTk3OTc5IEMyMzcuNzA2Mzc0LDEwOC4zMzgwOTggMjM5LjQ3NDI3Myw5OS44NTQ3OTA0IDI0My4wMDc4OTgsOTIuMDc4NjQxOSBDMjQ2LjE4OTY4Miw4NS4zNjI1ODExIDI1MS4xMzkzNjQsNzkuNTMwNDY5OCAyNTcuMzI0ODM4LDc1LjQ2NTYwNTYgQzI2My42ODYyMzMsNzEuNDAwNzQxNSAyNzEuMTA5NjcxLDY5LjQ1NjQ4NzIgMjc4LjUzMzEwOCw2OS42MzMyNzcxIEMyODQuMzY0NTY4LDY5LjYzMzI3NzEgMjkwLjE5NjAyOCw3MC44NzAzNzE4IDI5NS4zMjE2MzEsNzMuNTIxMzUxMyBDMzAwLjI3MTMxNCw3NS45OTU3NTgxIDMwNC4zMzQ4NzUsNzkuNzA3MDQyNCAzMDcuMTYyNjQ0LDg0LjMwMjI3NjIgTDMwNy4xNjI2NDQsMzkuMjM0OTczOCBMMzM0LjczNDQ4MSwzMC4yMjE1MTMzIFogTTMwMi4yMTUxMzMsMTM3LjMyMjUxNyBDMzA1Ljc0ODc1OSwxMzIuNzI3MjgzIDMwNy42OTI1NzksMTI2LjAxMTQ0IDMwNy42OTI1NzksMTE3LjM1MTU1OSBDMzA3LjY5MjU3OSwxMDguNjkxNDYxIDMwNS45MjY4NTIsMTAyLjE1MjQwNyAzMDIuMjE1MTMzLDk3LjU1NzM5MDcgQzI5OC41MDM0MTUsOTIuOTYyMTU2OSAyOTIuNjY5NzgzLDkwLjMxMTE3NzUgMjg2LjY2MjQwMiw5MC40ODc5Njc0IEMyODAuNjUyODQ5LDkwLjEzNDM4NzYgMjc0LjgyMTM4OSw5Mi43ODUzNjcxIDI3MC45MzE1NzgsOTcuMzgwNjAwOCBDMjY3LjIyMjAzMSwxMDEuOTc1NjE3IDI2NS4yNzYwMzksMTA4LjUxNDg4OCAyNjUuMjc2MDM5LDExNi45OTc5NzkgQzI2NS4yNzYwMzksMTI1LjY1ODA3NyAyNjcuMjIyMDMxLDEzMi4zNzM5MjEgMjcwLjkzMTU3OCwxMzcuMTQ1NzI3IEMyNzQuNjQzMjk2LDE0MS45MTc1MzQgMjgwLjY1Mjg0OSwxNDQuNTY4NTEzIDI4Ni42NjI0MDIsMTQ0LjM5MTk0IEMyOTMuMzc3ODExLDE0NC4zOTE5NCAyOTguNjc5MzM2LDE0MS45MTc1MzQgMzAyLjIxNTEzMywxMzcuMzIyNTE3IFogTTQzMS40MDg1NzQsNzUuMjg4ODE1NyBDNDM3Ljc2OTk2OSw3OS4zNTM2Nzk5IDQ0Mi43MTk2NTEsODUuMTg2MDA4NCA0NDUuNzIzMzQyLDkxLjkwMTg1MiBDNDQ5LjI1Njk2Nyw5OS42NzgyMTc3IDQ1MS4wMjQ4NjYsMTA4LjE2MTMwOSA0NTAuODQ4OTQ1LDExNi44MjE0MDYgQzQ1MS4wMjQ4NjYsMTI1LjQ4MTI4NyA0NDkuMjU2OTY3LDEzNC4xNDEzODUgNDQ1LjcyMzM0MiwxNDEuOTE3NTM0IEM0NDIuNTQxNTU4LDE0OC44MTAxNjcgNDM3LjU5NDA0OCwxNTQuNjQyNDk2IDQzMS4yMzA0ODEsMTU4Ljg4NDE1IEM0MjUuMDQ1MDA3LDE2Mi45NDkwMTQgNDE3LjYyMTU2OSwxNjUuMDY5ODQxIDQxMC4yMDAzMDQsMTY0Ljg5MzA1MSBDNDA0LjE5MDc1MSwxNjUuMDY5ODQxIDM5OC4xODExOTgsMTYzLjY1NTk1NiAzOTIuODc5Njc0LDE2MC44MjgxODcgQzM4Ny45MzIxNjMsMTU4LjM1Mzc4IDM4My44NjY0MywxNTQuNDY1NzA2IDM4MS4yMTQ1ODIsMTQ5LjY5Mzg5OSBMMzgxLjIxNDU4MiwxNjMuNDc5MTY2IEwzNTMuOTk4OTMxLDE2My40NzkxNjYgTDM1My45OTg5MzEsMzkuMjM0OTczOCBMMzgxLjM5MjY3NSwzMC4yMjE1MTMzIEwzODEuMzkyNjc1LDg0LjY1NTYzODggQzM4NC4wNDIzNTEsNzkuODgzODMyMyAzODguMTA4MDg0LDc1Ljk5NTc1ODEgMzkzLjA1NTU5NSw3My41MjEzNTEzIEMzOTguMzU5MjkxLDcwLjY5Mzc5OTIgNDA0LjE5MDc1MSw2OS4yNzk5MTQ1IDQxMC4yMDAzMDQsNjkuNDU2NDg3MiBDNDE3LjYyMTU2OSw2OS4yNzk5MTQ1IDQyNS4wNDUwMDcsNzEuNDAwNzQxNSA0MzEuNDA4NTc0LDc1LjI4ODgxNTcgWiBNNDE3Ljk3NTU4MywxMzcuMTQ1NzI3IEM0MjEuNjg3MzAyLDEzMi4zNzM5MjEgNDIzLjQ1NTIwMSwxMjUuNjU4MDc3IDQyMy40NTUyMDEsMTE2LjgyMTQwNiBDNDIzLjQ1NTIwMSwxMDguMzM4MDk4IDQyMS42ODczMDIsMTAxLjc5ODgyOCA0MTcuOTc1NTgzLDk3LjIwMzgxMDkgQzQxNC4yNjM4NjUsOTIuNjA4Nzk0NCA0MDkuMTM4MjYxLDkwLjMxMTE3NzUgNDAyLjQyMjg1Miw5MC4zMTExNzc1IEMzOTYuNDE1NDcxLDg5Ljk1NzgxNDkgMzkwLjU4MTgzOSw5Mi42MDg3OTQ0IDM4Ni42OTQyLDk3LjM4MDYwMDggQzM4Mi45ODI0ODEsMTAyLjE1MjQwNyAzODEuMjE0NTgyLDEwOC42OTE0NjEgMzgxLjIxNDU4MiwxMTcuMTc0NzY5IEMzODEuMjE0NTgyLDEyNS44MzQ4NjcgMzgyLjk4MjQ4MSwxMzIuNTUwNzExIDM4Ni42OTQyLDEzNy4xNDU3MjcgQzM5MC40MDU5MTgsMTQxLjkxNzUzNCAzOTYuMjM3Mzc4LDE0NC41Njg1MTMgNDAyLjQyMjg1MiwxNDQuMjE1MTUgQzQwOC40MzI0MDUsMTQ0LjU2ODUxMyA0MTQuMjYzODY1LDE0MS45MTc1MzQgNDE3Ljk3NTU4MywxMzcuMTQ1NzI3IFogTTQ4OC42Njk4MTcsOTIuMjU1MjE0NiBMNDg4LjY2OTgxNywxMjcuOTU1NDc3IEM0ODguNjY5ODE3LDEzMy4wODA4NjMgNDkwLjA4MzcwMiwxMzYuNzkyMzY1IDQ5Mi41NTk2MjksMTM5LjA4OTc2NCBDNDk1LjM4NzM5OCwxNDEuNTY0MTcxIDQ5OS4wOTY5NDUsMTQyLjgwMTI2NiA1MDIuOTg2NzU3LDE0Mi42MjQ0NzYgQzUwNS45OTA0NDcsMTQyLjYyNDQ3NiA1MDkuMTcyMjMxLDE0Mi4wOTQzMjMgNTEyLDE0MS4zODczODEgTDUxMiwxNjIuNTk1NDM0IEM1MDYuODc0Mzk3LDE2NC4zNjI4OTggNTAxLjU3Mjg3MiwxNjUuMjQ2NDEzIDQ5Ni4yNjkxNzYsMTY1LjA2OTg0MSBDNDg0Ljk2MDI3LDE2NS4wNjk4NDEgNDc2LjI5ODg2OSwxNjEuODg4NDkyIDQ3MC4yODkzMTYsMTU1LjUyNjAxMSBDNDY0LjI4MTkzNSwxNDkuMTYzNzQ3IDQ2MS4yNzYwNzMsMTQwLjE1MDI4NiA0NjEuMjc2MDczLDEyOC40ODU4NDYgTDQ2MS4yNzYwNzMsNTAuMTkyNDcxNCBMNDg4LjY2OTgxNyw0MS4zNTU4MDA4IEw0ODguNjY5ODE3LDcxLjc1NDEwNDEgTDUxMiw3MS43NTQxMDQxIEw1MTIsOTIuMjU1MjE0NiBMNDg4LjY2OTgxNyw5Mi4yNTUyMTQ2IEw0ODguNjY5ODE3LDkyLjI1NTIxNDYgWiIvPiYjeGE7ICAgICAgICA8cGF0aCBmaWxsPSIjRkY2OTRBIiBkPSJNMTg3LjE2MTQwOSw4LjEyOTc3MTcgQzE5MS43NTY0MjUsMTIuNTQ4MTI4NyAxOTQuNzYwOTg0LDE4LjM4MDM0ODcgMTk1LjQ2NzkyNywyNC43NDI3NjQ1IEMxOTUuNDY3OTI3LDI3LjM5Mzc0NCAxOTQuNzYwOTg0LDI5LjE2MTIwODQgMTkzLjE3MDMxLDMyLjUxOTEzMDIgQzE5MS41Nzk4NTMsMzUuODc3MDUyIDE3MS45NjIyNTcsNjkuODEwMDY2OSAxNjYuMTMwMTQ2LDc5LjE3Njg5IEMxNjIuNzcyMjI0LDg0LjY1NTYzODggMTYxLjAwNDc1OSw5MS4xOTQ5MDk3IDE2MS4wMDQ3NTksOTcuNTU3MTczNSBDMTYxLjAwNDc1OSwxMDQuMDk2NDQ0IDE2Mi43NzIyMjQsMTEwLjQ1ODkyNSAxNjYuMTMwMTQ2LDExNS45Mzc2NzQgQzE3MS45NjIyNTcsMTI1LjMwNDQ5NyAxOTEuNTc5ODUzLDE1OS40MTQwODUgMTkzLjE3MDMxLDE2Mi43NzIyMjQgQzE5NC43NjA5ODQsMTY2LjEzMDE0NiAxOTUuNDY3OTI3LDE2Ny43MjA2MDMgMTk1LjQ2NzkyNywxNzAuMzcxNTgyIEMxOTQuNzYwOTg0LDE3Ni43MzQwNjQgMTkxLjkzMzIxNSwxODIuNTY2MzkyIDE4Ny4zMzgxOTksMTg2LjgwODA0NiBDMTgyLjkxOTc1NSwxOTEuNDAzMDYzIDE3Ny4wODc2NDMsMTk0LjQwNzYyMiAxNzAuOTAxOTUyLDE5NC45Mzc3NzQgQzE2OC4yNTA5NzMsMTk0LjkzNzc3NCAxNjYuNDgzNTA4LDE5NC4yMzA4MzIgMTYzLjMwMjM3NiwxOTIuNjQwMTU3IEMxNjAuMTIxMDI3LDE5MS4wNDk0ODMgMTI1LjQ4MTI4NywxNzEuOTYyMjU3IDExNi4xMTQyNDcsMTY2LjEzMDE0NiBDMTE1LjQwNzMwNSwxNjUuNzc2NTY2IDExNC43MDAzNjIsMTY1LjI0NjQxMyAxMTMuODE2ODQ3LDE2NC44OTI4MzQgTDY3LjUxMjQ1MDEsMTM3LjQ5OTA5IEM2OC41NzI3NTUsMTQ2LjMzNTc2IDcyLjQ2MTA0NjQsMTU0LjgxOTA2OCA3OC44MjMzMTAyLDE2MS4wMDQ3NTkgQzgwLjA2MDYyMjIsMTYyLjI0MTg1NCA4MS4yOTc3MTcsMTYzLjMwMjM3NiA4Mi43MTE2MDE3LDE2NC4zNjI2ODEgQzgxLjY1MTA3OTYsMTY0Ljg5MjgzNCA4MC40MTM5ODQ4LDE2NS40MjMyMDMgNzkuMzUzNjc5OSwxNjYuMTMwMTQ2IEM2OS45ODY2Mzk2LDE3MS45NjIyNTcgMzUuODc3MDUyLDE5MS41Nzk4NTMgMzIuNTE5MTMwMiwxOTMuMTcwMzEgQzI5LjE2MTIwODQsMTk0Ljc2MDk4NCAyNy41NzA1MzM5LDE5NS40Njc5MjcgMjQuNzQyNzY0NSwxOTUuNDY3OTI3IEMxOC4zODAzNDg3LDE5NC43NjA5ODQgMTIuNTQ4MTI4NywxOTEuOTMzMjE1IDguMzA2NDk2NDIsMTg3LjMzODE5OSBDMy43MTE0MTQ2OCwxODIuOTE5NzU1IDAuNzA2OTM1ODIsMTc3LjA4NzY0MyAwLDE3MC43MjUxNjIgQzAuMTc2NzM0MDY0LDE2OC4wNzQxODMgMC44ODM2NzE0MDMsMTY1LjQyMzIwMyAyLjI5NzU1MTczLDE2My4xMjU1ODYgQzMuODg4MTYxMTMsMTU5Ljc2NzY2NSAyMy41MDU2Njk4LDEyNS42NTc4NiAyOS4zMzc3ODExLDExNi4yOTEwMzcgQzMyLjY5NTkyMDEsMTEwLjgxMjI4OCAzNC40NjMxNjc0LDEwNC40NDk4MDcgMzQuNDYzMTY3NCw5Ny45MTA3NTMzIEMzNC40NjMxNjc0LDkxLjM3MTQ4MjQgMzIuNjk1OTIwMSw4NS4wMDkwMDE0IDI5LjMzNzc4MTEsNzkuNTMwMjUyNiBDMjMuNTA1NjY5OCw2OS44MTAwNjY5IDMuNzExNDE0NjgsMzUuNzAwMjYyMiAyLjI5NzU1MTczLDMyLjM0MjM0MDQgQzAuODgzNjcxNDAzLDMwLjA0NDcyMzUgMC4xNzY3MzQwNjQsMjcuMzkzNzQ0IDAsMjQuNzQyNzY0NSBDMC43MDY5MzU4MiwxOC4zODAzNDg3IDMuNTM0Njg5OTYsMTIuNTQ4MTI4NyA4LjEyOTc3MTcsOC4xMjk3NzE3IEMxMi41NDgxMjg3LDMuNTM0Njg5OTYgMTguMzgwMzQ4NywwLjcwNjkzNTgyIDI0Ljc0Mjc2NDUsMCBDMjcuMzkzNzQ0LDAuMTc2NzM0MDY0IDMwLjA0NDcyMzUsMC44ODM2NzE0MDMgMzIuNTE5MTMwMiwyLjI5NzU1MTczIEMzNS4zNDY4OTk2LDMuNTM0Njg5OTYgNjAuMjY2MjM2OCwxOC4wMjY4Nzc1IDczLjUyMTM1MTMsMjUuODAzMjg2NiBMNzYuNTI1OTEwNSwyNy41NzA1MzM5IEM3Ny41ODYyMTU0LDI4LjI3NzQ3NjIgNzguNDY5OTQ3NywyOC44MDc2Mjg3IDc5LjE3Njg5LDI5LjE2MTIwODQgTDgwLjU5MDc3NDcsMzAuMDQ0NzIzNSBMMTI3Ljc3ODY4Nyw1Ny45Njg4MzcxIEMxMjYuNzE4MzgyLDQ3LjM2NDcwMjEgMTIxLjIzOTYzMywzNy42NDQyOTkzIDExMi43NTYzMjUsMzEuMTA1MjQ1NiBDMTEzLjgxNjg0NywzMC41NzUwOTMxIDExNS4wNTM5NDIsMzAuMDQ0NzIzNSAxMTYuMTE0MjQ3LDI5LjMzNzc4MTEgQzEyNS40ODEyODcsMjMuNTA1NjY5OCAxNTkuNTkwODc1LDMuNzExNDE0NjggMTYyLjk0ODc5NywyLjI5NzU1MTczIEMxNjUuMjQ2NDEzLDAuODgzNjcxNDAzIDE2Ny44OTczOTMsMC4xNzY3MzQwNjQgMTcwLjcyNTE2MiwwIEMxNzYuOTEwODUzLDAuNzA2OTM1ODIgMTgyLjc0MzE4MiwzLjUzNDY4OTk2IDE4Ny4xNjE0MDksOC4xMjk3NzE3IFogTTEwMC4yMDgxNTMsMTEwLjI4MjEzNiBMMTEwLjI4MjEzNiwxMDAuMjA4MTUzIEMxMTEuNjk2MDIsOTguNzk0MjY4MyAxMTEuNjk2MDIsOTYuNjczNjU4NSAxMTAuMjgyMTM2LDk1LjI1OTc3MzggTDEwMC4yMDgxNTMsODUuMTg1NzkxMiBDOTguNzk0MjY4Myw4My43NzE5MDY2IDk2LjY3MzY1ODUsODMuNzcxOTA2NiA5NS4yNTk3NzM4LDg1LjE4NTc5MTIgTDg1LjE4NTc5MTIsOTUuMjU5NzczOCBDODMuNzcxOTA2Niw5Ni42NzM2NTg1IDgzLjc3MTkwNjYsOTguNzk0MjY4MyA4NS4xODU3OTEyLDEwMC4yMDgxNTMgTDk1LjI1OTc3MzgsMTEwLjI4MjEzNiBDOTYuNDk2ODY4NiwxMTEuNTE5MjMgOTguNzk0MjY4MywxMTEuNTE5MjMgMTAwLjIwODE1MywxMTAuMjgyMTM2IFoiLz4mI3hhOyAgICA8L2c+JiN4YTs8L3N2Zz4=;" vertex="1" parent="-weSQRlIko4ZVMSPdNd1-15">
          <mxGeometry x="426.67" y="272" width="75" height="78" as="geometry" />
        </mxCell>
        <mxCell id="-weSQRlIko4ZVMSPdNd1-54" style="edgeStyle=orthogonalEdgeStyle;rounded=0;orthogonalLoop=1;jettySize=auto;html=1;entryX=0;entryY=0.5;entryDx=0;entryDy=0;entryPerimeter=0;" edge="1" parent="-weSQRlIko4ZVMSPdNd1-15" source="-weSQRlIko4ZVMSPdNd1-61" target="-weSQRlIko4ZVMSPdNd1-34">
          <mxGeometry relative="1" as="geometry">
            <mxPoint x="118" y="379" as="sourcePoint" />
          </mxGeometry>
        </mxCell>
        <mxCell id="-weSQRlIko4ZVMSPdNd1-47" style="edgeStyle=orthogonalEdgeStyle;rounded=0;orthogonalLoop=1;jettySize=auto;html=1;exitX=1;exitY=0.5;exitDx=0;exitDy=0;exitPerimeter=0;" edge="1" parent="-weSQRlIko4ZVMSPdNd1-15" source="-weSQRlIko4ZVMSPdNd1-33" target="-weSQRlIko4ZVMSPdNd1-38">
          <mxGeometry relative="1" as="geometry" />
        </mxCell>
        <mxCell id="-weSQRlIko4ZVMSPdNd1-51" style="edgeStyle=orthogonalEdgeStyle;rounded=0;orthogonalLoop=1;jettySize=auto;html=1;exitX=0.5;exitY=1;exitDx=0;exitDy=0;exitPerimeter=0;" edge="1" parent="-weSQRlIko4ZVMSPdNd1-15" source="-weSQRlIko4ZVMSPdNd1-33" target="-weSQRlIko4ZVMSPdNd1-44">
          <mxGeometry relative="1" as="geometry">
            <mxPoint x="464" y="460" as="sourcePoint" />
          </mxGeometry>
        </mxCell>
        <mxCell id="-weSQRlIko4ZVMSPdNd1-33" value="AWS Fargate &lt;br&gt;(Run via AWS ECS)" style="sketch=0;points=[[0,0,0],[0.25,0,0],[0.5,0,0],[0.75,0,0],[1,0,0],[0,1,0],[0.25,1,0],[0.5,1,0],[0.75,1,0],[1,1,0],[0,0.25,0],[0,0.5,0],[0,0.75,0],[1,0.25,0],[1,0.5,0],[1,0.75,0]];outlineConnect=0;fontColor=#232F3E;fillColor=#ED7100;strokeColor=#ffffff;dashed=0;verticalLabelPosition=bottom;verticalAlign=top;align=center;html=1;fontSize=12;fontStyle=0;aspect=fixed;shape=mxgraph.aws4.resourceIcon;resIcon=mxgraph.aws4.fargate;" vertex="1" parent="-weSQRlIko4ZVMSPdNd1-15">
          <mxGeometry x="426" y="340" width="78" height="78" as="geometry" />
        </mxCell>
        <mxCell id="-weSQRlIko4ZVMSPdNd1-50" style="edgeStyle=orthogonalEdgeStyle;rounded=0;orthogonalLoop=1;jettySize=auto;html=1;exitX=0.5;exitY=1;exitDx=0;exitDy=0;exitPerimeter=0;entryX=0;entryY=0.5;entryDx=0;entryDy=0;" edge="1" parent="-weSQRlIko4ZVMSPdNd1-15" source="-weSQRlIko4ZVMSPdNd1-34" target="-weSQRlIko4ZVMSPdNd1-44">
          <mxGeometry relative="1" as="geometry" />
        </mxCell>
        <mxCell id="-weSQRlIko4ZVMSPdNd1-34" value="Airbyte hosted on &lt;br&gt;Amazon EC2&lt;br&gt;(Data ingestion)" style="sketch=0;points=[[0,0,0],[0.25,0,0],[0.5,0,0],[0.75,0,0],[1,0,0],[0,1,0],[0.25,1,0],[0.5,1,0],[0.75,1,0],[1,1,0],[0,0.25,0],[0,0.5,0],[0,0.75,0],[1,0.25,0],[1,0.5,0],[1,0.75,0]];outlineConnect=0;fontColor=#232F3E;fillColor=#ED7100;strokeColor=#ffffff;dashed=0;verticalLabelPosition=bottom;verticalAlign=top;align=center;html=1;fontSize=12;fontStyle=0;aspect=fixed;shape=mxgraph.aws4.resourceIcon;resIcon=mxgraph.aws4.ec2;" vertex="1" parent="-weSQRlIko4ZVMSPdNd1-15">
          <mxGeometry x="191.85999999999999" y="340" width="78" height="78" as="geometry" />
        </mxCell>
        <mxCell id="-weSQRlIko4ZVMSPdNd1-62" style="edgeStyle=orthogonalEdgeStyle;rounded=0;orthogonalLoop=1;jettySize=auto;html=1;" edge="1" parent="-weSQRlIko4ZVMSPdNd1-15" source="-weSQRlIko4ZVMSPdNd1-35" target="-weSQRlIko4ZVMSPdNd1-1">
          <mxGeometry relative="1" as="geometry" />
        </mxCell>
        <mxCell id="-weSQRlIko4ZVMSPdNd1-35" value="Amazon ECR&lt;br&gt;(Storing dbt container&amp;nbsp; image)" style="sketch=0;points=[[0,0,0],[0.25,0,0],[0.5,0,0],[0.75,0,0],[1,0,0],[0,1,0],[0.25,1,0],[0.5,1,0],[0.75,1,0],[1,1,0],[0,0.25,0],[0,0.5,0],[0,0.75,0],[1,0.25,0],[1,0.5,0],[1,0.75,0]];outlineConnect=0;fontColor=#232F3E;fillColor=#ED7100;strokeColor=#ffffff;dashed=0;verticalLabelPosition=bottom;verticalAlign=top;align=center;html=1;fontSize=12;fontStyle=0;aspect=fixed;shape=mxgraph.aws4.resourceIcon;resIcon=mxgraph.aws4.ecr;" vertex="1" parent="-weSQRlIko4ZVMSPdNd1-15">
          <mxGeometry x="425.17" y="50" width="78" height="78" as="geometry" />
        </mxCell>
        <mxCell id="-weSQRlIko4ZVMSPdNd1-36" value="Amazon Secret Manager&lt;br&gt;(Storing credentials)" style="sketch=0;points=[[0,0,0],[0.25,0,0],[0.5,0,0],[0.75,0,0],[1,0,0],[0,1,0],[0.25,1,0],[0.5,1,0],[0.75,1,0],[1,1,0],[0,0.25,0],[0,0.5,0],[0,0.75,0],[1,0.25,0],[1,0.5,0],[1,0.75,0]];outlineConnect=0;fontColor=#232F3E;fillColor=#DD344C;strokeColor=#ffffff;dashed=0;verticalLabelPosition=bottom;verticalAlign=top;align=center;html=1;fontSize=12;fontStyle=0;aspect=fixed;shape=mxgraph.aws4.resourceIcon;resIcon=mxgraph.aws4.secrets_manager;" vertex="1" parent="-weSQRlIko4ZVMSPdNd1-15">
          <mxGeometry x="568.34" y="185.64" width="78" height="78" as="geometry" />
        </mxCell>
        <mxCell id="-weSQRlIko4ZVMSPdNd1-37" value="Amazon EventBridge&lt;br&gt;(Scheduling ECS Task)" style="sketch=0;points=[[0,0,0],[0.25,0,0],[0.5,0,0],[0.75,0,0],[1,0,0],[0,1,0],[0.25,1,0],[0.5,1,0],[0.75,1,0],[1,1,0],[0,0.25,0],[0,0.5,0],[0,0.75,0],[1,0.25,0],[1,0.5,0],[1,0.75,0]];outlineConnect=0;fontColor=#232F3E;fillColor=#E7157B;strokeColor=#ffffff;dashed=0;verticalLabelPosition=bottom;verticalAlign=top;align=center;html=1;fontSize=12;fontStyle=0;aspect=fixed;shape=mxgraph.aws4.resourceIcon;resIcon=mxgraph.aws4.eventbridge;noLabel=0;" vertex="1" parent="-weSQRlIko4ZVMSPdNd1-15">
          <mxGeometry x="568.34" y="50" width="78" height="78" as="geometry" />
        </mxCell>
        <mxCell id="-weSQRlIko4ZVMSPdNd1-38" value="S3 Bucker&lt;br&gt;(Storing dbt artifacts)" style="sketch=0;points=[[0,0,0],[0.25,0,0],[0.5,0,0],[0.75,0,0],[1,0,0],[0,1,0],[0.25,1,0],[0.5,1,0],[0.75,1,0],[1,1,0],[0,0.25,0],[0,0.5,0],[0,0.75,0],[1,0.25,0],[1,0.5,0],[1,0.75,0]];outlineConnect=0;fontColor=#232F3E;fillColor=#7AA116;strokeColor=#ffffff;dashed=0;verticalLabelPosition=bottom;verticalAlign=top;align=center;html=1;fontSize=12;fontStyle=0;aspect=fixed;shape=mxgraph.aws4.resourceIcon;resIcon=mxgraph.aws4.s3;" vertex="1" parent="-weSQRlIko4ZVMSPdNd1-15">
          <mxGeometry x="720" y="340" width="78" height="78" as="geometry" />
        </mxCell>
        <mxCell id="-weSQRlIko4ZVMSPdNd1-44" value="Snowflake on AWS" style="shape=image;imageAspect=0;aspect=fixed;verticalLabelPosition=bottom;verticalAlign=top;image=data:image/png,iVBORw0KGgoAAAANSUhEUgAAAcsAAABuCAMAAAB/esicAAAAY1BMVEX///8ptegRsecYsueb2fO85vfB5vfb8frg9PxLv+tawuyz4PVGvOq34/aR0/H4/f5vye7w+v3N7Pnn9vzz+/6Az/A2uelkxu2l3PTI6viV1vLV7/p4ze/l9fxrye6a2POI0vCS7sL6AAAR+klEQVR4nO1da4OyLBNO2KzMMjNPHf3/v/KVGVQOg9I+u3dtr9en3VQELhiGOeBiMeP/DEm4z/d1Qly5nPNmd/rnFZrxXYQx45yzuDYvrCO4EFSvqNWMb2DLAgRf6hdWAccLbP+ams14EquOypazTLsSDBfCF1VuxlM48J4yflUvVAPJQfyq2s14BgOVLdQLG+V3tn5V9Wb4Y63MvoCrQlblmC2dBcx4G1w0LtXpp3G5e1kFZ3hj5vJzMHP5OZi5/BzMXH4OZi7/KpLbKtNt6N/iMslWN8oUP+Of4bQvGONxpdLwDS6TKmaMFfvZf/I63Aq08bBY2fk/z2UY4yO8mI1Br0KiUBOtul+f5XIdKQ/McvZFyFXLK2tS/PU5LtOGKaXw/J834h/hdKzyw+F67P5fbu7fFELHKLr8VK16JIEGHuCy+RSXVcH1Uj5zYmZNIJzwnDNJw6X9t/hWW7P2ScOV+AO4GDQEGEjwBJd1zIwi+M8PuTdA3fngA37GX77aH9hq/CkaS/Yb3t+jSUT7kjJTXdHjXGYHczC09x+dr/u7UAZ9t7S8G5fWvBRcsOboxSXfnhn1/Lfa9+bAlkFrO33g3bhMbCpEnfX/XFyaN3b46Uq+Ab7E4Ob5cZ2l/Qb63bhcNDQdnlxS+MiYriKwXe9vx+XCVEL/K5e8+Pk6vhwr0Uml8eP7cZlNkvkUl7z4cV37DbDlRETM+3G5SM6OZe8bXPJg/5GbS7ESWRvCN+Rysbgd7J3Jt7hk99uvVPDlEDsvbv74lly228zNCJu+XBL5Cp+CkhPRwG/KpVgRnILWj0vOPzjBJGobuDF/fFsuF0njYtOHS87zj1woJf4Yl63ifacFrQeXrPxEW8+AP8flYlEXFJuTXLLi07OE/iCXi0VFCFqVS8Lmx/nXB4vXddiiFlk0cQh/Dpd+ict1+nR5SUZG5qRXy1zO1cLtSXml3p0c68sow9nycS03Ub4lTAvVfdvftjtf74f9dtKNlhyrvC3v/lgS1akPTw637UH6QioGwJYC4r4kN5fZbn+PojKvjsNr1/eoHwdjXN4Zs5XIdPk4tK07kK3bbUS1KjKDPTLI1IxykcEk6R/Pci464OzqwPSrfT1IgPa+0tzJ7BlHt1L6FTN0/3IWNGMz4HLlsry2wE1ljNJLW+CVfpDGo30Ah5MtpVg/zhxcppVsnKg2z7v+Kdr/OgE3wqXofK7v0tMtFMixddFWb10ijQNavNaAnWbW04fJTvOGFVSEbPIIunAw2p5XBVoh5niI298OUIx2Gz+4DBHHUpclLNCn4YMbyWoTSIr2frS+WlQqQU4kl8mXVuu2dSW4c0XmXD8MnFwmMI80p+HprBfYaifaFBzsPLQCmih+SW7skTfDFUZOvOWgQHFLX2iR9nFeXC7OnGuuFeRyHVuyPtgSxS0Wje1E5bHqDw+ZOSLHUQvusUo7RcZy+HMzKmOPtnWbs2aBieZ8iktJ5V2tO2EuZ8XQOtXTzHlDrZtZtz/h5txKuz4W8Qc2VmpEHtWDKVau5XFzba4b5JNFyh2Cy6usI++AxTVETTfdgODFZtOPD/Y13HISHitqWDlwUEha7wTaKgWx+GOrMEBw+dXXOog3RT9W48yLS0ml2hf7oRuCom+c0q9XjWpOnwhyjGDNa6yplzRCC+ARFQnSak76ELIdYDgUeNk1pS6hAYpDCToO7wrK3bqtQFY3OAKYFeO3RnnONxX2ahoe8BeVdxFs6J/EndrUe+5Jcoa1PoSooqyqrh3r9TSXp401Kw+ywHIL70lWVcT11hXmnN2QhtTVcluT+nF63IakaK4sjwszhwKed6BtSGvRYGUGx/3Dh6H/T1/WdBPI5MBXy8uwS9m5/0WEonFvF7lQCQyDpB+XDfZ8rsqrUIqNJZ/iMgHehabQQ1J5VRUFadHpPP6BBX74gWjzkDDQM3MwIFG6dD611VMkS8cl15fHFbZV05MSmK7MFB4YMzdonDh6fdsBgkLXs7y4hGN0eGHIq6QZ1IcxLnFWavo2PMljc6ewxJ7F0aaeH9G9hjej7TtGcbwZtVRkJWUzYsZda6iwJZ6/mDKLJJfcfN0JyNRUsavBWV8Z5L0nBLrdMzwwY7rIF/Dhco09b0uyXvUf4xIbp1EZQoGlrV9i+AAuGnvKiM6DkQy8JaiKI7pgQiiTApFxH9TP/LFFqgw+5JLb1UkDgznRJxSVomsCtfuBnwNxHwFBkTmOfLgsgEpKs+/IHOFS0qOqA9Bac1AhEpAzMKrX1AwSyqRr5C4t9cnA1hGaYC0KFZ9euYAGTm3uYSQM6lQi7nSUdoO+6ccDmDisKRNuCrtF0E8GJR5c4kFl9C72zCe4lFQ26kMQVefQvrNhVH85PM/sStZl2RNFk3mMXOVZU8GfS1LrEn3K+ikM3efaa8DFXiCDPmPO9IxSQWDzYKrLHlzG2tghnh/hUlJ5Vh9Brc5l7AKJhELgi5aI7ex62M+FClMEmVTourz5bkkcvYdpwGyjE4xqNqQAyBudq6DQCninoJ8CQl7BdDEFPoT2mOrGNJchVVaPIx/j8kZQCQsh139SUQ7RZGvXVOKBOVBD7U6LzIdjWLQlEQZCiJOfyASDEe6gKFA69UgoKQpqbY3MbTsnGlvN7BchYq1d8TSXd2oIDMBNNM3lGqS6uduCH92JyaIj+8YvLRtZx1akTezQuE0nc0l6PIFJ0sAHS1zAyrEYL5hujmuiy7rcKjGD+EiIEajrnagG4vXu2sntoPajaK5x38KDyzSg7hhQMyeXa+wvY45AfRt3gVClfiFKvhwKC1fb0lPJe816eGviiEQQK6+DLVQROL+6dwjxSLeACi4X9alN40PdiCR2qd3WTFuZwX5naQ2TXNa2fUFH4OJyFWiXOgj5P5owJzQPRU5npsWtZ6Inc5iVu2Vn5R1mJrmlFHds3EzdOwtjfHZUNR4RnaL/ArRrnKb2GRdtKp5NK83Fas5Czi972ZvkElwxY165u8Puc0EBa+2rYKAlI7iY6+nFEUupDjfs+ltvFR/evKMfdvkzJPoBwHmxp5ofj3CkcHlhxHBWIeyqgwQVVgpNaPVWaVUVE2KD0EYnuRSFFWMBARXN5QV7wn6jS5/UoQ/5HSlo5e7u1l+7Yed0ZOKMIuxHYEGa8OErVlvOirNlPfTkEjxZoxG5on6R9p+yDIPOH5WBXgi9D53msqRuUBGStnWp39q6YDIafd7D2BGcztRNRf9OgKxxJq3yKLkykkqPiLy0UdyrnEVbnXxPLoVUGNEcFyYDW30jAOvN1tCFxeClrBSTXOrDhsCF4vLYzQ1L48/8uLTUhSy270F5IYXo0LMyww+5XFMz2u9I2XQbsWEvw3TriyeX20lHlj5ZxFBXHErQ6BST8Xpd58uhGk9xmYyt8QDKf1kPA9qcAGupIo7DcgFmB4IS1Pu7BbG3MspoH8klNVBo9xmBdHvnPZ1so6iOvzQv8dzxTn7W0ryjG6IEwVTO4X+fl0eLy1oKWOxvYycJ87LcT8BSfsm9PtarO4KiG3KduoCiKjH9oHiNDDdwNDAPOtd7MLDyY+ulYEaZLLXanZGcDQm8X47Vi2ZWUjDJJXmDCmu95NiZrMatpzEQTk95XGWpdPZlp6k2GpndFoZJSUXnVHN29j9HLQkPXdxDPwSe0WPHtnRiPdfUimKYPLfeXwMxB7uhQaTY/gU9VsZDhNI6borLUZMghYvDkjfEa+U9mVna/c26sZ6SDwt/7OimxMAah8iw3Hhyaax/ROtMUw/sv/HhpjdnrhQvXOCaXZNcfk3tL0uLS2g0VOFKOBRhjzBSnoH06sgGUnObezKD/hszg9giTpSR92yeOeMnxGe6rvDkctLuczZNpCJTnYPzAMLv5QYFpC3cBlKbHIaTXBImQh3wQpNLqVYnGFKg2Vcm7T4a7OCcjoirukfIDb40dW3tzNtkhydC6dHi3i1UvlzuCaexClBktFoISkCP2ypGE1y8xF9gmyHXh2l77ESoX2jZYwNlKyIFnKpodLqZD+g0IPECMxJdJ9OUajvXcQecPfzj/jXvky+XF0eMgkRo2/iqbqaC3UB2HahwwkoN6yv94mk/Cdhx3ZoYbAAMLpVxCGdb8FgdR4XJrokmKGGgZi6jOBWJrpJpb6KSvXN+m2FMblzUgAFfLnUPpYXYvtppQ2I3MLziLF0jW7di7Om/dE7M2vZf6h9Kg92fNk/2ps3RfDtDV//aMZk4J1XQgUxyP+w+7mBMAmpYf4vL3eBct1FRXm/QQFDZGJanDDoDTQuOswp94wocOl+C1k59T6LrOmdQZpVdCNhP3SsmuFdEjzmodG4NB22Wvn50ejE995q1Gu3hzWUyEoEAUsuyjYF2E6bGHAI/cp2NTAQPLnFm0Z6+zlw2FlN5NysMp8G6zsHEpl+V7yHq/R67RWJubBssOBQp39X7qvajN5c4BEyHPABsxeYGfIHbtlLb6y2khMdfHdsKnzg8UEbJ04268KrxWGdUZoeJeEJSSDJR8xVGrJLq9fFvkzbCQDOW95Y6jjsw71s2hNgAa1a/VPlziWOXIHNVOKQCzJBC9kMPsM2OaaI+XKJQLOyZ2UfKjXOJyqwyGFD33RCjI8VsBVGCbXvjvJnYQmS324S8XFGeaWanQvKraVk5Yiu6f5/gErNTrP3PDt9NRMV1h6nqAqMTVE4zkn/cuuVdkCk2xSSXcmcWDRMR49btAwQw9wuHsN3jP3N0RGgvm2YOAsQ2BrnK5glXk2GpeIZLmU+iCZULDipS9nY+V91Sd+qGtGu4+uWTnJndmXjoNS9s27qtF2ISgyL97nJp09hZYdyjNPoZuc0E8wJh2V7JCZJvIumqJJ1b1nEHZgyWTIBhm+oIMzZbSnus0oRnuOyO8+NBg3lMq2qDzgJGxyNWWEGDGBxObn3AM88LM+xE6+DntG6k1TVOPfK85PPqGLz2BcoTA7JtJJvXyPao04cH5Pi9YJdwu0sqeYE00xl2QZuTVFqKOGO8KILOi2nk7Plz2afmQoF9eU5xiRPZ7Eh0xbqP9vA9R6Tq3s5YUPCuMqw8+eXSYuilusd9qAUWBbeapxwGwllOyZVsSNE081eHmHd2oB7V7PWEXpicCSVJy4l5jkvSazdiDwbd3/JRYvyq6xn/M2GIACoMa/TjEkNOVWemfZy9aJ6S+9XFJjiOjlg81B2GbvO9qUwFpJluMOvRKQu33Oh8phubihH/B8Wl0Lq0AllAHqqBgH26FZ0fjps/3VyadUkq87wCTIf0O69gcbNmgFmg1bxVzOBwDnLRM1Lk9V1arl8rqBKSvThHo5UHrvQKedQGxjmwjXFbS7UzCUnowUQKwyrnSnnbMUNwIlLPbYESK8d82GgXMjslG+pivyrZKo0Lmq7QQvmMRSq+aUE7eWv7QxnJrjtHBA4SsU9/OT7yMzkyVpZPU8tttnKqI0oFTqsyOox3aV019/KeV6G9GWoi9163LsnzhNqe3YryrlU95QjP8jshjNJrOeZhamLivL9jmdN1ScPHtSzvjXosUXZVXrs6OA9FCUviUttb+b1si9wv/U91TRtbPKuGKeLcLTa1NZ3xEpCmuKnz8CZMRjNegSOlM01zGXzyKcB/E/SBA15cii3U/KnEt8GJjq305VKcLjV/xfQ9sB35soXneevPRd/N+CVcNm4mvbkMRlP1ZvwTpOOftHjm+yS0WW/GvwJ1lPN3ufzsryG8Pc6T2WHPfc/L4Wua8fuoJ6l8+jt786L5IpC5zbr1x80lLZyfOKl1xg+CzKHkhZbB5f4u7YHcyTgCC2f8Mo42GeKkZ+3EPPf3opfkx4Y+8nvRfwA2lxB65P8ddyL6bubyNbiZTGIclz+XRJbRM58cmPGD0HSf3nv1DJeWp2zWfV4EJR2W895l/xyXevTdvCd5GXpbgRrH9SSXavTdbCt4IbYBxHFpUVhPcwknVkKw0uwseSWSXX5v9Hi6b3Ap0n7u+e6DP7n3R/EtLme8JWYuPwczl5+DmcvPwczl52Dm8nOwmrn8GJxULp25QbO17k9ANblrOXuql9qdezrjjbBkjtmnHAROH+4w4+3Qf7rEzCHtDztQTy+Z8dbI5RETjXkB42k5K+e0yz+DS14ERUNkPWePTVAc5iy9d8D/ALdjzMLfyVEXAAAAAElFTkSuQmCC;clipPath=inset(0% 0% 0% 0%);" vertex="1" parent="-weSQRlIko4ZVMSPdNd1-15">
          <mxGeometry x="360.00000000000006" y="560" width="208.34" height="50" as="geometry" />
        </mxCell>
        <mxCell id="-weSQRlIko4ZVMSPdNd1-61" value="Amazon RDS&amp;nbsp; for&lt;br&gt;PostgresSQL&lt;br&gt;(Source DB)" style="sketch=0;points=[[0,0,0],[0.25,0,0],[0.5,0,0],[0.75,0,0],[1,0,0],[0,1,0],[0.25,1,0],[0.5,1,0],[0.75,1,0],[1,1,0],[0,0.25,0],[0,0.5,0],[0,0.75,0],[1,0.25,0],[1,0.5,0],[1,0.75,0]];outlineConnect=0;fontColor=#232F3E;fillColor=#C925D1;strokeColor=#ffffff;dashed=0;verticalLabelPosition=bottom;verticalAlign=top;align=center;html=1;fontSize=12;fontStyle=0;aspect=fixed;shape=mxgraph.aws4.resourceIcon;resIcon=mxgraph.aws4.rds;" vertex="1" parent="-weSQRlIko4ZVMSPdNd1-15">
          <mxGeometry x="30" y="340" width="78" height="78" as="geometry" />
        </mxCell>
        <mxCell id="-weSQRlIko4ZVMSPdNd1-69" style="edgeStyle=orthogonalEdgeStyle;rounded=0;orthogonalLoop=1;jettySize=auto;html=1;exitX=0;exitY=0.5;exitDx=0;exitDy=0;entryX=1;entryY=0.5;entryDx=0;entryDy=0;" edge="1" parent="1" source="-weSQRlIko4ZVMSPdNd1-39" target="-weSQRlIko4ZVMSPdNd1-44">
          <mxGeometry relative="1" as="geometry" />
        </mxCell>
        <mxCell id="-weSQRlIko4ZVMSPdNd1-71" style="edgeStyle=orthogonalEdgeStyle;rounded=0;orthogonalLoop=1;jettySize=auto;html=1;exitX=0.5;exitY=0;exitDx=0;exitDy=0;" edge="1" parent="1" source="-weSQRlIko4ZVMSPdNd1-39">
          <mxGeometry relative="1" as="geometry">
            <mxPoint x="1035" y="520" as="targetPoint" />
          </mxGeometry>
        </mxCell>
        <mxCell id="-weSQRlIko4ZVMSPdNd1-39" value="Preset" style="shape=image;imageAspect=0;aspect=fixed;verticalLabelPosition=bottom;verticalAlign=top;image=data:image/png,iVBORw0KGgoAAAANSUhEUgAAAZAAAAB5CAYAAAAXg3cyAAAAAXNSR0IArs4c6QAALD9JREFUeAHtXQeYFEXa7p5ZkiAGFLNgwKywSxAX2AX9xXyeCX3MKLK7eKeHZzz1xPR7Kmc6ZVkwYgbPwG9ObCCIhF30PEVQJAgoi4gECTvd//uuOz7DMtNV3VM1ifqe553urvrqq6q3u+ur0N1jWzkgXavKP7Jc91htVbFtF7bX2pa7BjvYWmtw/Itl2Yss254bcq25kXBo7p677T3/nS4nb9RWDmPYMGAYMAxkEANoC7NbCmpGdY9ErJkZUQvbcuBqPnND1se2Ff64Vcu2NdN7XwhHY8QwYBgwDOQeA1nvQLpVjhqPUcE5mXhqbMuOuLZL5/Za61Ytnp/e+4olmVhOUybDgGHAMBCEgax2IN2nVBzQ0BD52nKtUJDKpzQNRieY8poUsuxxO+yy86uVhw9am9L8TWaGAcOAYUAxA1ntQPKrykc7rluimJNUmFsHl1eRZ4VHzioqWZaKDE0ehgHDgGFANQNZ60AKp5R3XLfZWmhZbmvVpKTQ3kZMcz1ptbLuqzum7LsU5muyMgwYBgwDSTOQ+VM/Caq4PmJdneXOgzVr5VpumbXRncfR1DFTH985QXVNsGHAMGAYyDgGsnIE0v+L8e1+XlG/GIvnO2Yco0kUCKORetu2b5xdVPIktnx02IhhwDBgGMhYBrJyBLK6fmVJrjkPXiEYjeziuM7j+dWjp+TXjO6asVeNKZhhwDBgGAADWTcC6T6zokXDWudbNLd75/QZtO1NGITcUFc07KGcrqepnGHAMJC1DGTdCCSy3rkg550HLyfXbek61oPdqspf71szaqesvcJMwQ0DhoGcZSCrHIjruviaiHVdzp6NOBVDnU9fG7Fqu9dUHB0n2gQZBgwDhoG0MZBVDqR7VcWpaFAPSxtbacoY6z2dGiJOZdfK8jPSVASTrWHAMGAY2IqBrHIg+NDUDVvVYJsJcFtjwWpCt+ryK7aZKpuKGgYMAxnNQNY4kG5VYwox+uiT0WxqLhye0gq7jjuma9WoWzRnZcwbBgwDhgEhA3lCjYxRiGzDo49mJ8G17syvGtWutnjYjc1izKFhwDCw7TDQDVUdALRsVuUfcTweWNcsXPlhVjzGW1A19tCI1fAFnkzKivIqP0sJDIas0F9r+5c+kCDaBBsGDAO5y8DxqNo7QDhBFWcjnA/eNCSIVxKcFVNYjttwvXEeW59vrAmN7Fo9+sKtY0yIYcAwkOMM8L5P5DxY9QLgKO7olIx3IF2nlu+F1x3x7oeRrRjAiMx23ScLakafuFWcCTAMGAZymYHtJSrXTkInKZWMdyDWZms4Fs9bJFXLHE5MbhzHeZn/jZLD1TRVMwwYBjKQgcxfRLet7/GRwRFp5o5fNmwHb9vOda32GBF1xvHBmFbLiK/nskwNDc74k+a9XWj+kz3NV4rJ3jCQ/QzsjSrETn99jeMVAJ+C/RxYDPBbfbtnvAOZU1T2IAqakZJf/eSutrOpt2Nbx1qWcywa8ljSU1tm1y1YvnThSGT659RmbHIzDBgGcoyBA1Gfi4CzgYnAC8Ai4DVgNHA18CRwuHmqCSyokoKpjx8Yadh0ET63Quynyq4fO6GQfXZtUdm//aQxuoYBw0DWMfAqSiz6MkUxdKqTqNkapN0XWAX0BMYAXLhnvmOBQszKGFHFwOzCIfPnFA27ra6o7ICwHTrLtq1ZqmzL2sGLhhW9pj/TQVbf6BkGDAOGAUkG6FAc4GLgA6YxDoQsKBb+GdTs4tJX64qH9QiH7dMwzJuvOIuE5rA202HTr+vvSahgIgwDhgHDQDAG6C8qAU6TvwUYB0ISdMrsfmVv7rFX5yPw0t9tyGejzryitvG65RDz9d4oG2ZrGDAMBGTge6TjiIPCtmsp8C7wCbAQWGLWQMBCqqRrdXkvPM71Oh693UN7nrZde1BRh54T7EER7XmZDAwDhoFUM5CKNRBhncwUlpAidQp4ouxTO9yyBx5LnqnOagJLrps/r6Z+cIJYE2wYMAwYBpJmwDiQpCn0Z6C27+VL27TsUAQn8qK/lAG0HfvGc9zxXp87CGDUJDEMGAYMA78xYBxIGq6EaYWDfq3rX3Y+Xki8VWf2+Pz7AfOqV56nMw9j2zBgGNh2GTAOJI3nfk7xsLswEtH9ouTfsOZi1rrSeJ5N1oaBXGUg499Ez1Xio/XqUtzhuq+r6g/FsZYPIsJ5HNatavQfYZ9vkWaa8H2VE4BCYHdgtya0x7Ye+AFYDiwBPgKqgJQ8yYZ8ggj/lyFaB9atuePGU9bWPOBbQIXwY3nHAXxhbE+AeXcEdgFWA+SP/w1BDqcB7wH8JEW6hR1XvpjGc38IEOWM5V4PrAR4/ok6YFLTNvpEEA7TJgcj55OAIwByHS07zz25jnLOc8x3Jch7zj7I0vwCR12NpJqB7jMrdmhY60y3LJcXp3LBC43v450U3qyZIHQOpcDpQG/AzyiYf5BDR/Iy8BKQ7galC8rAxuRkoBewEyASlvkq4DGRYoL41gi/HDgT6Auw4ZIV5s2XW/l5CubPN4xTKd2R2XDgRIAO1o+wrDz3DwFT/CRUoHsYbFwJ8Fzv59Pez9CnIxkHvOkzrZe6zFNY5HqOlxHENQD/Bei0fYtxIL4p05MAo4QurgUn4ko1Qr4KgWmySDgU2mdWUckyXwnVKrPh4014E+C38YhXki8QeAvwerxIjWEctQ8GrgUOCpjPD0jHEZcfYb6XAbcCe/tJmEB3NcIfAB4E1iTQURVcAEMjgNMUGayCnbuADxXZS2Rmf0SMAC4A/HR0oB5XpiOU16yKcss4kLiFiBO4FmE8N5Vx4jyDVJDimYGJlGOgrrh0nm2HL5LT9qfF/1KPuC5vgnTJsch4HjASUOE8WI/DgdcA9kb3AXQL75ULga8AfhMoqPNAUmtX/viQbtBlL7EC2NtHOi/VHRB5O7AA+IOXYhJx5OxuYCagynmwOJyyY69+NOBnBAZ1KWHH+g6A55r3JOuhQo6GEZb7HUDVfaCiXO1ghB0736KKGN8ZmwRbM1BXVPIWrtwJW8eoCHG0OCeJkpVAh3Pvqhq+5lly/WQG0Lt5hMJj3uzvA88CByi0K2OKU1WTAU6X6RDWjaO4WxQbp5MkZ38D2CDrEF5bNYDKDkRb2Ps3cCvQAtAhnMLjNct1lEwRv52axnIbB5Ipp6+pHG5Lm/OWHFIqFX5qvntVxZFKjYqNPQwV9hLzxKpJaXAhkwut5yZlJX7ioxDMm/24+NFaQ6+H9VcANmo6hQ38ncDLQFhBRrvAxlQgFZxx7YkOtiOQrOwOAxzRnpGsIYn0+0FnGkBnkrViHEiGnbo5hWXfh+zQQzqK5VjOQB12E9i8EeFXJYjTEcw1lmeBPgqN94ctNoS82VMtg5DhvYCu3nu8+jDPkfEifITxPLwBHOgjTbKq+8IARw3JjBiYdgLQFUiVcOqIeXKRPivFOJAMPG0tWrehA1mnumiuxT++Sokcj1zuTklOW2YSbQTYk0xW9ocBXb1/0QiTDcoTyVYgYPq/IN3FAdMy2VMApxVTLX2R4b+SyJSOkzZSLXQidLg7pjpjFfkZB6KCRcU2Pj36kpVYtuOCqVKBA+nX352kezqJax0vAkGurQakWwZ8BdQDKLJv2QMp2KsLkn80s+2xw0dddS10vhDNKM6WPXg+YcOGxa9sQILFQB3wLSByVFCJK7z2Do8b4x14EqLP81aJG8vzvAL4sglBzz3XRPjEl185BwmCjJZZ7p+AucDnwHKA17Bf4Wjtab+JFOv/HMSe7sYkSJlMGjDQys6r2Gg1XKOUDNfdfnXV3J6wyblXXfJ3GPbT8M6H/pPA28BnQKzT4IiCU1KnAJcDOwEy0hdKZwPjZZTj6DyKML8NKMs9B2BjwgZwFeAAsUIdOkevcl2B+INjEwn2FyB+DPAuwPxj+cNh41TSidgOBmQbVzqxu4AzAFkJQ/F+WWXobQa45kIuaoDmDdjOCDsOuATg+ZeVO6B4qqwy9NgG/sOHPvmlg58AfAisBGKlFQ76ASwDr9l2gIycDiVet5NllBXrRGDvsSA2Uzm/6lk+vEy3HSZtDvBUSldkC2vz9jvstKTy8EFBe3SBSt6tqnw63iTvFShxgkQh276ptrjMzw2TwFLc4E4InQew4RcJubweGAs0iJQRT+dxCzAckLluv4AeHxpo3qAiyFOYhj142RHMfOiSzzcAOo5khI3PN8BeEkY42iB/owE2xiIhZ2cCo4COIuWm+B7YzpLUZWP5uKQun84aAiyW1D8aehy17S+p3xt60yV16aCeltT9BHqlwBxJ/V2hR0c8VFK/EnoDJHXpxM4Q6DJvXk9eQucxA/jKSylRXF6iiFSHR9Y516OxvC3V+UrltwndyRX1VreqUUvRGk3MC4WfntWvRPYClcoinhK+YPUsmr9e8eKChqH8RwRNK5HuZujIOI+l0GOvkg21rLBH/1eAF/vTABtbLzkckecAXr39eOnvRqCM86DTuwF4GOBNqEIugxEZ50FH9Qdgmo9MceobF5rJ35sAHaVIbofCqSKlpvhLJfUehB7PI8sjK7zXeB+8A/SUSMRGXub+DEPvbxL2qMLr6BKAjltWVkCxBJgJlAPMz0v6I5IOZJKXko+4t6BLp6dNZG4UbZlHDTeOPtzGt5SjQRm5xaOwe+KyL22IRD7B6ODlnp8+tbvOgobzWryr3L7ra3rET/btoMwbTCS8AU8C/DiPWJsv4YANhIxcKaMUo8NG6rSY40S7vyJiIPAAoMp5MC82NiLhtBgdox/nEWtzEQ7I/4+xgQn2T0b4rgniYoM5oimMDUiw/wrC/TqPqKmV2GGP+4dogMeW9eOISyT9oXCQSAnx5PoCwI/ziDU7FgeyjkrmHoq1ndb9jHAgznr3crwtvUtamfCZOUZLgzb/umG6zncrZhcOmY/bQHaYL1cD25W5YeRsbanVH4cttwyKe8QGhGsdycjTSPyChIFjoLO9hF5U5fzojmB7BeJV9RKjWbERPip64LG9H3GVHvEyUd9DiaMdkbARPkGkhHg6XVFbsg46VwMuEFRYbo76RLIbFGTWe44XGUI8OwvnARxxJiP3IfGHEgbIt4zzkzClX0V00rWXgH945DruNdoz0pABnMi+DZbz4dGfjN1bg/lGk7iSlDZUGEW1715dsYeG8so0NAuR7xhFed8KO6LefwvoDPCR3ykSuuxFPy+h51flOCQQNRxszEb6NZxAn9Mb0xPExQafGHuQYL93gvDYYDr8pbEBAfefQ7pvJNJy9CQSGQfyDIwsEhmSjL9NQm936HSV0MsIlbQ7kHnV9edi9NE5I9gIUgjX7bhhQ8MEOBPRzR/EOtKEPg+YMGEyx7IPShgZPELGgXC9INmeXLSE32Ln9eiBx3agR1xsFDk5MDYgzj57z3fECVcRJNOYvYiM6lVk1mTjEQlbMvzJdEgmSuQlo8JOw3gJxSMFOpzxyBfoMFqGIwkzjSpT8TtTQlmGcwkz+lXS7kBcy75WfzV15+D2Rq9+kI5cQm7jY6GKTUdUTxe2RQG7SBTybQkdPyoy9mQaCeYp04B/Cj3lDr2pwjK9zg+adFVtaE80pcQ1ENE04J4SBfpSQkdWRea87yswdgTiRZ2+pdBRWW4W6X3+COQAQXzGRKfVgXStqhhoua7sDZ4xpMUrCD4Twrl95ZIXDvG9AqWCFkPUIPjNr6NEgmXQUV2XSRL5ypSNZjpJ2JKZw5YwE1dFZrG6Jm7K4IErkFTmnIg43E2iCMxLlXwmYUjkQNLBN4stcw5l+JSgQL9KWh0I3rO6Xn8VU5MDRlI9dKwtbGrX4kfVNcD/g6TDgcxXXQ/Y+w4QrYOIGr9osTj3LBKOQHSJqEHbjIy/15A5e9kiETVov4gMIF7lqJf5rRLkyfPZ0kNH5rpY4JE+aJQKvoPmrTxd2hwIGtsCjD64cJgbgjUQx430VF2ZLt3arlFt03WcdDgQlXP3UUowmNrqTeBoXHTbHjutogceW1EjyaQyj5B6ZJEwiuejdcLY3yJ+EsQHjZYZGYgaW5lGUbS+5Lf8ooV0Xhte7ZvIYbM8OjhXwbdfrrTpexGsLVMajrjODVozSINxLE7LLCb6KtkEe1AEf0n7q69EAmXXVj4C2VmQJaNXS+gEUZGxu5OEYRkHslLCThAVmfLJ1DNI3i0kEnH04yUyDkT2EWmvfGLjHsMBnUQiGYWIDYkiEZ4uzlXw7VGt1Eal5U30njWj9t8csc5KbVX152ZbriY+bdwoXveKv7qFLOVPjIkWI1lAx18ppbVl7MqUz2u6I1qYTdEdxVuZjpy6C2DLwss4Tq5feckSr8imuHOxvQP4VkJXRuVpKM0AuBgeBqJCnhYCU6MBCbYynMtcWwnMJwxWwXdC46mO0NTgeVdjc8S+ln+z6q2VfbEhKyS60XxXaoTrhl6rKt/Od0KPBFivUT4t5pGdicpcBtiIHiJRvOUCHT5ZdKNAh1N0E4BCYKNAVzb6CygS2SSHSxRWxLeEidSoyHhhpSXJr35yV8t2L1VqNEOM2Xn2HNVFeWf68+1U28TTi2vV2zQWs5CBXihzB0G52QsXPchRBR2Z9aEC6L0D7ABsq8LPrIhEeUdUlGHQ+JQ7EMfZ+Ge8Dd0maIEzNR3WKb6c1adEtLDnu/jO5l9UPr3SmD+m2swIxPeZyMkEl0vUajp0RC9/0sm8ImGLKgOAaUBPHmxjwumrUyXqPEVCJyNUUupABs4Z1xaN17CMqLnqQrihR1WbpL2IFTpItV28NW8ciGpSs88ep64GSxR7ooQOVbioLVpsj5o6FDt0Ig8AMg9gRNNl+/Y2VEA0Hc3pvfeypaIpdSA//rx+CFa4REPmbOHu93Latj0v3M4e+3uAwh3HUf/1XDsU0vF4osJaG1OaGWgP+xwxyKxDyjqQL2Hvfh/lZt7DAS6q/x3IuXYBdYqVQTgojQ1IsD8J4VkzxZwyB9L4V6quwwsmpwTOY33Izjt7Vo8S2d6Xv/q7rsyimy+boZA9z1cCo5xLDPAFu7cAmevqP9D7r4/K3wVdv9O4XA+5HVgMlAMHA7kmdB7PALZExcZL6GSMSsocyKqauedh9NEpY2quoiC2vca1QmfMLrriMxXm4tlwbbc4XnjQMDq8mX2G8mY1sm0xwB7/BUAt0Fey6jdL6kXVfsXOWYDoLfGofuyW66LsoXMk8yYwAMh22QcVGAu8DLSWqMxX0HlWQi9jVFL2GK/tOtfBgeSMYNF8VtgKDZ5VXPK5rkp1nVq+l7VJ8f93uNY8OJFcOhW66M92u3yvhdNCRwLHAuwF7wfISg0UZaevYm3yScQTgI+AIF88YC/9lCbMwpbTYpxuiwCZLpwa3BPoAwwEzgBkXhyEWqPchF/RAwtNqpmxSYkDKagZfWIk4hyVGVUOXgp8QyqCV/AqcYU/VVtU+oL2hjhi4yJU3NbbUh/PC06SSamLAT5MITs3zkZYtFjrVU421td6KQjiZiCeTuRVgFNmQaU7Er4EfAc8CDwBrANSJY8io4ckM6PD9uMsmputRIDM3xM0T5fW45Q4ECfi3qCjlhgFfIaX927XYXsLm661OWS7S8Kttv9meu8Lf2GcbZVtoaLlwHE55aBa/Mxpq87b2AvOAJ1C2+DJfaW8Ctqf+kqxtfI0BHUDngP+Z+toXyGdof0wMAJ4BOCoJBWOpBXyIXTLQmRwnu5MdNjX7kDyJ4/u4TQ4/XUUHiOAe2YXlbKXk3PCfzncsHHzANUVw4vt1aptGns5xQB73KMU1egH2DkBuAbgk1ZBprSQ7HfZCXu3AUOAG4HnAcVDdFhMrbBDegpArrJOtC+iuw16Rh8YAiw4sF+HCVnHuGSBN21qGIxbQ/H5sTfs1Kkle4ZGDAPxGHgGgX+NF5FEGF8yHAlwCu5pQEWDvxfscLF5EsD9bJWfUXCuk3yRrRVQ3EBtSUP3KRUH4CmiM7cMVXNku6GR/FKtGmuZZYUvXLqOxWkEpYK182mV+w3eoNSoMZYLDPAjkVcClwJs8HXIchgdDESntVQsFhfDHp8q4ygn26QOBeYaz8fZVvDY8mp1IJi6uk59L5rrD3Z9m5Y7PxVbkVzaX7FqfQk+NrmL6jqh65fVF6tqPoy9Rga+xi8bYlXTViJaP4PCRcD+wAPAGiAZ2RWJ3wH+lIyRFKalgx4DFALfpjBfLVlpcyCFU8o7Oq51iY5S2yHrkWmFg/jMec5Jt9qndnRsPdN+eaHwBzlHmKlQUAboOC4GDgM+CWokiXSLkZbTZfsCfHx1GRBUbCR8BLgsqIEUpONsCddsyHcJkBPtlzYHsr6BUzCuzMsz4NKXrGud1+IxXymySfmXDXfjnxo7Ki+ybX07q1/JdOV2jcFsYoALtVw7GASwIeN+uqeBuQ7wD6AzwCmuz4EgQicyFjgrSGJNaTjamAHcBZDvC4G5QM6Ilqew+n8xvt2q+vphOliy7dDYaYVDftJhO902u1WO6elaDaU6yoFpPzYWRrKXAa5dcfoHM5G/L0RznxK75T4bLt4jdBg/AsuBqcAcIKqL3YySTSjN000YiC1HJ9z6EXaIOT1UDazwkzCB7gKEkz9KlDduY/ejcTw/1I1y/g32PwZWAjkrWhzIqpUrrwDFfOROqaCL0RAO23yhKOeEU37rGyKvgDcto8JwXsg4kOy+ahai+EdndxWkS/8+NIkCgKOT4wFZ2RmKfOrrEtkEHnr/i7jHPeK3+SjljdVvH010h+tgFv+k9+KsviWLdNhOp81zvhjfElN+r+Iz65wPVi544XKqjv8qUV5QY9AwsCUDs3HIUcgpwJItozyPLkZsH08NE6mEAeUOZHX13PPRi95HSemaGcmzQ/c3C8qJw3kr6kfDeWi74N1QyPSicuJK2WYr8TZqfgTwbx8MDPGha1QDMqDcgTiWm8w3dBJWA73ot3R+uDBhxpojulaXD8eEKhcP9YhtLc5rYz+nx7ixahhIGQOrkRMX/2UfoPkjdFukrHTbaEZK10C6VY0+2XWdI3VwaVuh+3TYTafNblWjzsdy5/3RFTktZbHt+7T9V4mWAhujKWZgL+T3AsD1lebtAReEbwaeBrxkP0SeDLRtprQWxxOBJc3Cgx7y4YA/A/sDJwmM7Ih4rp1w9JJpwg4j11f4DkusbMYBvxTBp7WWxkZk6n7zCybJcup5fwFvDk6vLS6tTrJwGZMc01V2fvXoO7HFzanTfdg/7LRPazN9lTFnPiMLMgKlKkpQsj0RPhZ4B6AziScHIZBrFc2dR1T3Tuxw+imZ9zyitrjlDXMJwKectge85DhEZpoD4SJ/BRBvdBRG+ADgbkA0K0HnLJI2IoVk45VNYWEqphcaxEQXYlLltO0wn8TICeEjzvlV5VwwZ89Oq9gh958Z9OkSW1NlZezq9NIqqrVRwki8BkcimVCFjbuXsJNJR5JI+N5FIufBNGwwT+COQlkBW89J2NvLQ2eTR1w0qmV0R+GWDld0LjtJ5Mf3Z0TSTqSQbLwyB4KX325ItjDx09tz/9hvKIfBWS/5Ux7v9HN9/RS0Zpyf1St4cXDHfdr8S28mvqzv4EtbXlnG7ip5c2nRrJfIVfmnbZry9Gpko8X6ProTZyvzbbV946RLNuhlCQN7eOjQCYlEB+d7izJFvBff0eQy17RohBa1FXirxIH0qhlDr6qlUQzZ9v0jbJtzn1kt3arKL3A3b57putZRqagIRm1XZdDog1XWcTPSbgf+eMgviJPp4XuY0B61GTmIepTtodNKcUk4uvBqZJkdufNqbBdSSSAyTkpgYqtoTmGJxGvk5FWnqN3maxTR8GS2Mk+oLpbIQMaB7C9hJykVJWsgmyKRa1EKJc4otjb4v49lB+6y87O1sYFZtt918pjD7YbIo5iy6p+qomNO5/W6opK3UpWfZD77Ser5UePNKLqGo28S+7GbDl02aDsKMu6B+CkCHT/R8RbOm6dnb9hrCnBR8wRxjjvHCUs2iG/Xi8TrZWaZ66KnKIMA8X0l0sg4kJUSdg6T0ElKRXTzCY3jj49227Bh88VCxSAKtvvghMMHycxVBrGuNU1+zeiubsS52Y00nIW7T7lzTVR4ON314XDo6kTxaQxnY88e0bcKy9BfwlaixV+JpClVWYrcughyHIB4lQ5koCA/RovOl8wI5BjYYVvTQIOKRORsmY3X1CD5Fkl3KHAaaI1IUTKei+THSugukNCR6VcXSNhJSiXphm3Dxoa/oASqh9b8ZPvqVi3bVyRVuxQn/m2BfPTFXavKP3QiTh0cxznouyXNsZ9q4D/bb8jgt/VP9FMXCV0Ze3xCKBukWqKQF0JH1fXEBl2m4/eRoFwcOYmmg9gI9xLY8RvNDolIOHpKJHMQwelNLyFH53sp+Iw7C/oix8cO82QJu/+FjsixHQydQyVsBVZJ6mLsM/mJ7W3XLQ2cu0dC/PnR6Oj/j3uopT0Kj+Mehvc5rsQax6urVtQvd1znGTxQcFxaCmZbr84pKns0LXnLZcqRUVLXXEw2XIw8J+Y40e77iSIyLPwDifKwQThDQk9GhQ1jZwlFmalQmUdlr5DIy4/KsRLKXqMMjoYmSdi4DjocOSQrNgz8TcJIFXTWSug50JkpoXeehE5gFXrYwLI+smkoetkijxrE/sa8Nm0eCpJQlKagclS/SCjUSaQXGx+y0a937bau5cBhhtrjZcnOGCLxZj7YcRwubkLARDoFf/Frt29zeTqLIJH3QdBhL3qchK5I5VYotBAocXG6UqCTKdGfoCDsUYqenHkAOpOAn4CgsjsS3ieReDF0PpfQexM6lwj0LkD8CEBmyktgCnefZdGeSETTPHTapwuMHID4vwO3CfRE0ddAoatICfEyzjhqhtfMgOhBgi07bf8CvKbzEiQVBwd2IN1nVrRoWOtw+kq5YPpq3Ixeg5erNswR07qGjRMtx/Hl9Ojqow4CTuS3YqXZX/xWiKZf295ku+Fz6/IH/7xFeGYecIQ0FZifRPHORNqhEum5XiDTm5MwpV2Fzu494GxBTvsi/jmAIxE+IeVX+HLZi8BuEglfk9ChCkd5LL+XQ2fcswBHDuz9JyMcPeVLGBCVn401b2jRqPgW6LC3/39AEGEjf49Ewgh03pDQi6pMwM5N0YME2x0Qzk7HxQnikwoWEZfQeGS9gx6Au3dChaARtuW0DIdHBk3ulU7jiMkrW+1xOIlldf2HztCekZoM2MPmm81dApo7EemekUxLZ5VN8g/Jwp4EPfaeO0jqR9V2xc7HQP9ogMeWzul+j/jYKK4lTIwNSLDfD+EVQOCOK9J2B0YDIqmDwgKBEuNfFugwmu3kq0AJD3zKudDn9e7lXKMmX8COqMxRXW5rgU9jAxLsX4RwGQeWIHni4EAOBI+kopnX89FEFPX1T/sN/TpxkYPF8JPpeAdjeLDUmZsKY/mba4vLnszcEsYt2YEInQYMAlAFKWkNLc4hvwm0k0jxX+jwps8mmYXCyqw5sE5sjHmfXAtsB3gJueO1/xXQ20sxJm4s9pfEHIt2b4MCe/MiuQwKk4D9RYpx4tkQ0gHKnP/n46SPF3QnAmXKTadHx8WyHwOIhIvXrwMvAa1EyoiPAHdI6DVXKW8ekOD4RoSz03FQgvhAwbI37xbGC2rKT41E3KDDuS1sbXUQso/GQrCMV90qqVcAPh9ymeO6T3jpZF2cbT8yp7js6gwo96Uow1MBy8FGk40VpxM4595cjkTAqcAwwM+I9wLos0cnK3Q4vOm9pBMiF3kpKIjrBRvTfdr5FfqVwGRgGbAS4NTF7kAhcDzQFpCVDVDk3P9S2QRNepyiulAyDRtMTsGMA6YCq4F4wjqcAFwJ9IynECdsIcIOAVgPGWEjz5GCH1kAZY4s5gI/AByxsaz7AScCRwF+hPfPZX4SNOm2wfY7oGPTscxmBpToTL4HVgA8FxxFVgObAGkJ5EC6Vo6qQQ59pXORVMTaR2Vd/7IBkurSahwx4UvBaCBcXlQ5IvZLdcWl5+O9DzcDKnQpysAbIFnhxcybkRczp2d4Q7Ih9CvTkKAfwBtDVjLFgbC8nML9q2zBNeiVwOaYAHbpdL4AWvlMyxHAfKAeWAXwmt4JYIehE+BXzkOCl30k4nU2G9jDRxqVqnR4nJqj4w8iZyHRK0ESNkszE8d9AGknwmGZLymYPKp3pEG982AhQmH7Xl+FkVTOrxlzei45D3j9p7oUd7giQ5yH5FmQUuMcPZGM/ITEbED8OI9k8tOR9gYYLQCUd6YkCvsEdII4D5r+BhgKPMMDHxKC7kFN8JEsrup7CPXjPGhkOXAOMAmQWauAmjLZAEtnAkGdBwvyb4B19juKYtpY6YEDOhDyICU8cb7EabB4cSsX/GHUZ7P7lb6r3DAMuo6jpcw6yiqyGbKte+v6D7tsgj0omxtIUTWDxrPnegmwKKiBDEnHc8vGYHGKy8OpY04VJSPjkPifyRhIIu1nSDsoYPopSJeONdJS5MvRT7LyJxjglFSy4mvE78uB9Jg86mDXttGb1yH2fTqs5lePKYYL6a3DdkptYqrKDlnDa4uH3ZjSfLMnMzqPvwBcZM8F4XReIaCicZHhg5234wHO5Scr7LBNTNaIz/Rc8D8Z+MVnulj1x3AwBJCewolN7HOfPHO9yO9oLVE2nP4rAr5LpKAj3JcD2RyxrsNb1phBUSswuHDHokP8DjulCuG6kawffWB09gtGHufUFQ17SKrSman0JYr1q6ai8WY8D3hEk/10mWWj2A8Yr7kAD8P+qUAyjW9sETmCOgP4R2ygxv0ZsM01WRU98Cdg5ziADlyX/ADD/YHnFWfwLeyRh68U201oTtqBdK+u2ANLW/SYysUOhf5ZaQ9oUG24oHrsUVhAP0m13VTag/OYFc4LF9QWlXGeM5ulCoVnj3qB4kosg70TgWQbWZnrT0ZHcfWs9TBI58ieseoprXmweTbAkRsbfZXChfGbANpfq9JwM1uP4rgvsLBZeDKHk5G4AHgGUMkLOXkW4IL5J4AOoRPlOkYFwPy0irQDiViNb537fbpCWHiMPlaGtrPp9ZWL4zZk9egD/4XyaJdddimc1afkG+XkpMdgHbLtAYwDkr0xOeq4B+DiayWQrEwVGKDjo7NKh3B6jvdIF+BqgD3YZISNTAlwGKC7Y0L7LDdHzypHoGzk/wf4M6BjymkJ7F4KHAFMAHgOkpGJSNwVuBgg/zqFD5JwbYVOsBLwI2v8KKP9FsvRnzzXfuOGNYtcy/W1wCK2jLfIbPv2uuKyETK6fnS6TSvvjNnc+Shz2E+6TNDFSVmIJ9L+NLtf2ZuZUB6JMlwKnacEeqMRXxajczD2/w6cC/g5R8uh/yowEmCjrkraw9CdAB1c8/IsQthtwJdAJkgeCsHRHEfXBBsmkfwHCm8DbwF0lukYTe2GfK8F+MRTJ8Cv0FFMAu5t2vpNn4z+7kh8AkC+jwd2BryEI8ePAPJN3hcD6RLea38ATgeOARINHDj1lQ9sAKREyoF0qx51netIfXxNKtOoUuN/V7QNdZrVo4QLQEoF733gT5ycK5Ua1W2s8ZtW7j/D7cJ3gRNegNkil6KgTwkK29yBRNV3xM5xwECgF8Abk9gO4Dz0UoA9trnA6wAbP+1Dc+SRTcKO3R4AG+iOQAfgF+AHgA53GcBeaSbJgSgMG+JjATqTXZvQFlsKe8I/AqzDbOA9gM5jHZBuYQO8JxDlm9uWAMsaBa9ZHSMjmE1Ktkdqlp0OkeUm7+wwrQJ4f6kdgfATIPPq6xfgMyDMVLX8a07/YVepNppf/eSurrthIcrcRrVtXfbgyT/My7P+NLPvMDaU2SaXosBBHUi21dWUVy8D0Xv2V73ZGOsqGOBQ2FPm16+8UIfzQIPZYLWyH/DMPGCk42zkvGj0QgxoJTXJMAr7AG/g31VbXFqdmhxNLoaBjGbAOI6MPj1bFi7RXFijFj8BgjUEzlmqF9seX3dM2XeqDfNfAfF5vsyeuuI7Hbb9hm3l9cL6z0DjPFRfBcaeYcAwkAoGPEcgBdXlp2H0caiOgtghPS8Orlq58gq8qyJa4NJRJbFN/OkT/pjquXCLFuNmFw6ZL05gNAwDhgHDQOYy4OlAXEvPZ0tAx7u1/UrnqKal6U+urlFtNxl7eI9jBZzGGyHLHTerqGwyRh6g1YhhwDBgGMh+BhI6kG7V5X1cxy3UU8XwfTrsRtZFzofdvXXYlrWJtZ2f8WxyFR5QnhS27I9nFg39T9Rp2I1fJJe1ZPQMA4YBw0BmM5DQgeC1met1FB098hl1xSV8HE+pcL0mv3o0yqy3g9+4+I83a/FBlzXIaiHWW+aiTnMxrpgbDltzT+1TNm+Ebf/+mKkd6E/MlFJjjBkGDAOGAS0MxHUgBVVjD41YDafpyBG98Xt12L0dXf5wOHRSyI3ErVMyedpOCzcvr2Gda3dYM61wkOdTIjPNKCMZqk1aw4BhIIsYiNvYOu7m61AHdLbVCpzHvNP7lb5Wu8ULyWryaOr1L1JjzVgxDBgGDAOGAREDWz3Gmz/5iT3xjOkFooTB4t2RsdM7wWyYVIYBw4BhwDCQCQxs5UDcyMbheAyWr+WrluV77Nn5GdVGjT3DgGHAMGAYSA8DWzgQPAbLb+oM1VEUfFn24Xe6nLxRh21j0zBgGDAMGAZSz8AWayAN6yKleLKovfJi2PaaUNtQuXK7xqBhwDBgGDAMpI2B30cgJ817uxW+yXS1jpLYlluBr8uu1mHb2DQMGAYMA4aB9DDw+whk2bLvLsJnS/hJaLXCT5SHWz6o1qixZhgwDBgGDAPpZqBxBNL40UTH1vPRRMt6rrbv5UvTXVGTv2HAMGAYMAyoZaDRgeTXjDkdb3DzX6vUCr77lNcidL9ao8aaYcAwYBgwDGQCA7+NQBznBh2FwZuIE2cVlvBvEo0YBgwDhgHDQI4xECqoHNUPo4/eOuqFf73Q8tkSHWU1Ng0DhgHDgGHAHwOhiGVr+WgivkhbU9u/dJq/4hhtw4BhwDBgGMgWBvKwRvEX1w4PV13gVpb1k2qbxp5hwDBgGDAMGAYMA7nFwBmoDr+j74V7cqvKpjaGAcOAYcAwoIKBtjDyJZDIgfAl0kNUZGRsGAYMA5nDgPJPtmdO1UxJUswAnchAgN9Ti5UNOKgClsUGmn3DgGEg+xn4f29gp19GvzccAAAAAElFTkSuQmCC;" vertex="1" parent="1">
          <mxGeometry x="942.5" y="632.8" width="185" height="44.4" as="geometry" />
        </mxCell>
        <mxCell id="-weSQRlIko4ZVMSPdNd1-66" style="edgeStyle=orthogonalEdgeStyle;rounded=0;orthogonalLoop=1;jettySize=auto;html=1;" edge="1" parent="1" source="-weSQRlIko4ZVMSPdNd1-60">
          <mxGeometry relative="1" as="geometry">
            <mxPoint x="1035" y="400" as="targetPoint" />
          </mxGeometry>
        </mxCell>
        <mxCell id="-weSQRlIko4ZVMSPdNd1-60" value="" style="sketch=0;outlineConnect=0;fontColor=#232F3E;gradientColor=none;fillColor=#232F3D;strokeColor=none;dashed=0;verticalLabelPosition=bottom;verticalAlign=top;align=center;html=1;fontSize=12;fontStyle=0;aspect=fixed;pointerEvents=1;shape=mxgraph.aws4.users;" vertex="1" parent="1">
          <mxGeometry x="996" y="230" width="78" height="78" as="geometry" />
        </mxCell>
        <mxCell id="-weSQRlIko4ZVMSPdNd1-65" value="" style="group" vertex="1" connectable="0" parent="1">
          <mxGeometry x="980" y="410" width="110" height="90" as="geometry" />
        </mxCell>
        <mxCell id="-weSQRlIko4ZVMSPdNd1-56" value="" style="sketch=0;pointerEvents=1;shadow=0;dashed=0;html=1;strokeColor=none;labelPosition=center;verticalLabelPosition=bottom;verticalAlign=top;align=center;fillColor=#505050;shape=mxgraph.mscae.oms.dashboard" vertex="1" parent="-weSQRlIko4ZVMSPdNd1-65">
          <mxGeometry width="55.49" height="45.5" as="geometry" />
        </mxCell>
        <mxCell id="-weSQRlIko4ZVMSPdNd1-58" value="" style="html=1;verticalLabelPosition=bottom;align=center;labelBackgroundColor=#ffffff;verticalAlign=top;strokeWidth=2;strokeColor=#0080F0;shadow=0;dashed=0;shape=mxgraph.ios7.icons.pie_chart;" vertex="1" parent="-weSQRlIko4ZVMSPdNd1-65">
          <mxGeometry x="80" y="7.75" width="30" height="30" as="geometry" />
        </mxCell>
        <mxCell id="-weSQRlIko4ZVMSPdNd1-59" value="" style="verticalLabelPosition=bottom;shadow=0;dashed=0;align=center;html=1;verticalAlign=top;strokeWidth=1;shape=mxgraph.mockup.graphics.barChart;strokeColor=none;strokeColor2=none;strokeColor3=#666666;fillColor2=#008cff;fillColor3=#dddddd;" vertex="1" parent="-weSQRlIko4ZVMSPdNd1-65">
          <mxGeometry x="38" y="60" width="60" height="30" as="geometry" />
        </mxCell>
        <mxCell id="-weSQRlIko4ZVMSPdNd1-67" value="Northwind ETL Pipeline Solution Architecture Diagram" style="text;strokeColor=none;align=center;fillColor=none;html=1;verticalAlign=middle;whiteSpace=wrap;rounded=0;fontSize=20;" vertex="1" parent="1">
          <mxGeometry x="330" y="750" width="510" height="30" as="geometry" />
        </mxCell>
      </root>
    </mxGraphModel>
  </diagram>
</mxfile>
